<?xml version="1.0" standalone="no"?>
<!DOCTYPE svg PUBLIC "-//W3C//DTD SVG 1.1//EN" "http://www.w3.org/Graphics/SVG/1.1/DTD/svg11.dtd" >
<svg xmlns="http://www.w3.org/2000/svg">
<metadata></metadata>
<defs>
<font id="fbspoiler_blackregular" horiz-adv-x="819" >
<font-face units-per-em="2048" ascent="1638" descent="-410" />
<missing-glyph horiz-adv-x="456" />
<glyph horiz-adv-x="2048" />
<glyph horiz-adv-x="2048" />
<glyph unicode="&#xd;" horiz-adv-x="599" />
<glyph unicode=" "  horiz-adv-x="456" />
<glyph unicode="&#x09;" horiz-adv-x="456" />
<glyph unicode="&#xa0;" horiz-adv-x="456" />
<glyph unicode="!" horiz-adv-x="654" d="M119 894v306q0 89 99 89h173q96 0 96 -89v-306q0 -204 -70 -419q-15 -48 -51 -48h-131q-29 0 -43 53q-73 224 -73 414zM132 149q0 96 39.5 140t137.5 44q96 0 137 -43t41 -141q0 -179 -178 -179q-177 0 -177 179z" />
<glyph unicode="&#x22;" horiz-adv-x="720" d="M19 764l91 501q12 55 70 55h103q28 0 45 -27.5t10 -58.5l-36 -151q-41 -168 -190 -328q-25 -28 -48 -28q-52 0 -45 37zM338 764l91 501q12 55 69 55h103q30 0 46 -27.5t9 -58.5l-36 -151q-40 -168 -188 -328q-27 -28 -48 -28q-53 0 -46 37z" />
<glyph unicode="#" horiz-adv-x="1262" d="M83 302v137q0 43 53 43h124v261h-124q-53 0 -53 43v136q0 43 53 43h124v197q0 52 43 52h160q44 0 44 -52v-197h258v197q0 52 41 52h163q43 0 43 -52v-197h114q52 0 52 -43v-136q0 -43 -52 -43h-114v-261h114q52 0 52 -43v-137q0 -43 -52 -43h-114v-206q0 -53 -43 -53 h-163q-41 0 -41 53v206h-258v-206q0 -53 -44 -53h-160q-43 0 -43 53v206h-124q-53 0 -53 43zM507 482h258v261h-258v-261z" />
<glyph unicode="$" horiz-adv-x="1137" d="M95 872q0 173 66 255q89 103 322 103v92q0 54 43 54h40q44 0 44 -54v-90q242 -5 328 -43q24 -10 24 -41v-156q0 -62 -62 -55q-228 28 -290 28v-208l150 -36q171 -40 231 -129q50 -75 50 -237q0 -197 -99.5 -282t-331.5 -85v-85q0 -54 -44 -54h-40q-43 0 -43 54v85 q-91 0 -208 19q-109 16 -146 34q-25 9 -25 41v163q0 59 60 52q70 -12 137 -24q117 -17 180 -17h2v259l-139 31q-123 26 -178 87q-71 76 -71 239zM363 878q0 -57 34 -78q23 -14 86 -21v189q-120 8 -120 -69v-21zM610 245q72 0 96 14q36 22 36 91v21q0 86 -87 104l-45 9v-239z " />
<glyph unicode="%" horiz-adv-x="1600" d="M71 922v15q0 302 313 302q158 0 233.5 -69.5t75.5 -232.5v-15q0 -300 -309 -300q-313 0 -313 300zM233 36q0 14 9 31l791 1104q31 43 64 43h225q43 0 43 -32q0 -16 -11 -32l-784 -1095q-40 -55 -69 -55h-223q-45 0 -45 36zM309 922q0 -50 12 -65.5t63 -15.5q45 0 58 15.5 t13 65.5v18q0 66 -34 76q-11 4 -37 4q-75 0 -75 -80v-18zM908 278v14q0 300 311 300q159 0 234.5 -69.5t75.5 -230.5v-14q0 -301 -310 -301q-311 0 -311 301zM1145 276q0 -82 74 -82q73 0 73 82v16q0 51 -13.5 66t-59.5 15q-26 0 -42 -4q-32 -12 -32 -77v-16z" />
<glyph unicode="&#x26;" horiz-adv-x="1779" d="M119 278q0 176 140 315q87 88 290 203q-80 162 -80 299q0 152 89 253q93 106 242 106q129 0 210 -66q87 -73 87 -199q0 -228 -335 -379q141 -261 285 -451q201 249 201 396q0 93 -141 103v45h468v-45q-74 -10 -107 -26q-58 -28 -98 -103q-146 -270 -273 -432 q175 -203 334 -203q67 0 113 32q32 21 86 85l30 -26q-23 -98 -125.5 -173.5t-204.5 -75.5q-159 0 -365 201q-213 -201 -474 -201q-165 0 -265 87q-107 93 -107 255zM323 355q0 -126 77 -212q80 -90 204 -90q155 0 304 144q-149 194 -328 521q-257 -153 -257 -363zM642 1191 q0 -125 87 -311q254 147 254 316q0 80 -47 133.5t-126 53.5q-168 0 -168 -192z" />
<glyph unicode="'" horiz-adv-x="366" d="M19 764l91 501q12 55 70 55h103q28 0 45 -27.5t10 -58.5l-36 -151q-41 -168 -190 -328q-25 -28 -48 -28q-52 0 -45 37z" />
<glyph unicode="(" horiz-adv-x="739" d="M131 587q0 307 129 599q107 245 266 405q26 26 60 7l98 -59q19 -12 19 -27q0 -17 -21 -51q-89 -135 -153 -345q-77 -247 -77 -474v-110q0 -223 77 -472q64 -216 153 -354q38 -58 7 -77l-93 -57q-39 -25 -75 14q-161 173 -271 441q-119 289 -119 560z" />
<glyph unicode=")" horiz-adv-x="739" d="M36 1512q0 15 19 27l98 59q34 19 60 -7q158 -160 267 -405q128 -292 128 -599q0 -271 -119 -560q-110 -268 -271 -441q-35 -39 -74 -14l-94 57q-31 19 7 77q89 138 154 354q77 249 77 472v110q0 227 -77 474q-65 210 -154 345q-21 34 -21 51z" />
<glyph unicode="*" horiz-adv-x="951" d="M71 1169q-2 36 13 58q19 31 69 31h154l-85 112q-21 27 -21 54q0 35 39 67q30 25 60 25q43 0 73 -50l102 -156l105 167q26 37 65 37q28 0 62 -21q41 -29 41 -64q0 -27 -21 -55l-85 -116l158 2q53 0 72 -30q10 -23 8 -59q-2 -88 -80 -85l-158 2l96 -123q21 -30 21 -57 q0 -39 -41 -69q-30 -22 -59 -22q-39 0 -72 48l-115 170l-117 -173q-29 -43 -67 -43q-27 0 -60 22q-48 28 -48 62q0 25 24 53l103 132l-156 -2q-74 -3 -80 83z" />
<glyph unicode="+" horiz-adv-x="816" d="M47 482v170q0 43 52 43h181v177q0 56 42 56h171q43 0 43 -56v-177h177q55 0 55 -43v-170q0 -43 -55 -43h-177v-180q0 -53 -43 -53h-171q-42 0 -42 53v180h-181q-52 0 -52 43z" />
<glyph unicode="," horiz-adv-x="391" d="M19 -191l91 500q12 55 70 55h103q28 0 45 -27.5t10 -58.5l-36 -150q-41 -168 -190 -329q-25 -28 -48 -28q-52 0 -45 38z" />
<glyph unicode="-" horiz-adv-x="816" d="M95 472v184q0 44 52 44h518q55 0 55 -44v-184q0 -43 -55 -43h-518q-52 0 -52 43z" />
<glyph unicode="." horiz-adv-x="425" d="M47 132q0 98 27.5 129t125.5 31t130 -33q23 -31 23 -127q0 -93 -29.5 -124t-123.5 -31q-98 0 -125.5 31t-27.5 124z" />
<glyph unicode="/" horiz-adv-x="816" d="M21 -97l477 1407q14 44 65 44h178q52 0 30 -65l-471 -1399q-19 -55 -70 -55h-175q-57 0 -34 68z" />
<glyph unicode="0" horiz-adv-x="1154" d="M95 604q0 340 79 472q93 156 390 156h25q308 0 397 -156q72 -127 72 -472q0 -328 -81 -465q-94 -155 -388 -155h-25q-309 0 -398 155q-71 127 -71 465zM442 427q0 -82 31 -114t108 -32h8q69 0 95 31t26 105v372q0 91 -35 121q-29 25 -104 25h-7q-67 0 -94.5 -28.5 t-27.5 -108.5v-371z" />
<glyph unicode="1" horiz-adv-x="1154" d="M179 878v162q0 57 37 60l55 4q112 10 233 80q51 28 75 28h191q56 0 56 -55v-1095q0 -62 -58 -62h-250q-57 0 -57 62v775q-85 -20 -236 -10q-46 3 -46 51z" />
<glyph unicode="2" horiz-adv-x="1154" d="M95 57v176q0 48 38 81l448 397q72 66 72 123q0 72 -94 94q-35 7 -148 7h-5q-131 0 -222 -13q-46 -5 -46 43v197q0 31 23 41q68 29 353 29h10q241 0 355 -68q133 -81 133 -279q0 -250 -186 -398l-233 -185h410q55 0 55 -57v-188q0 -57 -55 -57h-846q-62 0 -62 57z" />
<glyph unicode="3" horiz-adv-x="1154" d="M115 55v199q0 55 55 46q127 -19 280 -19h22q115 0 139 4q86 17 86 84v50q0 58 -36 70q-23 9 -124 9h-226q-59 0 -59 62v147q0 62 59 62h192q84 0 110 10q36 14 36 60v19q0 52 -34 67q-23 10 -117 10h-69q-144 0 -218 -10q-46 -5 -46 43v196q0 34 22 41q72 27 350 27h9 q439 0 439 -281q0 -103 -34 -160t-119 -98q-22 -10 -5 -17l38 -15q91 -33 129 -96q46 -74 46 -222q0 -359 -473 -359h-9q-345 0 -419 30q-24 9 -24 41z" />
<glyph unicode="4" horiz-adv-x="1154" d="M67 323v111q0 41 13 62l377 659q34 57 85 57h320q68 0 68 -69v-587h103q55 0 55 -58v-172q0 -58 -55 -58h-103v-206q0 -62 -61 -62h-206q-55 0 -55 62v206h-496q-45 0 -45 55zM371 556h237v372h-18z" />
<glyph unicode="5" horiz-adv-x="1154" d="M124 62v194q0 55 48 46q113 -21 247 -21h50q128 0 169 11q52 19 52 77v22q0 86 -57 100q-32 7 -103 7h-326q-53 0 -53 41v618q0 55 64 55h663q57 0 57 -57v-187q0 -55 -57 -55h-401v-154l106 5q234 11 334 -69q114 -91 114 -329q0 -382 -471 -382h-83q-237 0 -328 37 q-25 11 -25 41z" />
<glyph unicode="6" horiz-adv-x="1154" d="M110 371v448q0 178 96 288q108 125 319 125h33q295 0 374 -34q22 -9 22 -41v-181q0 -51 -48 -46q-53 5 -319 5h-29q-76 0 -103 -50q-19 -39 -19 -135v-64q0 -13 7 -16q10 -4 17 9q62 85 206 85h13q183 0 268 -74q98 -89 98 -299q0 -192 -107.5 -302t-292.5 -110h-142 q-393 0 -393 392zM436 393q0 -70 29 -93.5t98 -23.5h27q76 0 101 20t25 97v21q0 55 -21.5 78t-93.5 23h-55q-64 0 -87 -21.5t-23 -79.5v-21z" />
<glyph unicode="7" horiz-adv-x="1154" d="M95 972v185q0 55 57 55h855q51 0 51 -41q0 -16 -10 -42l-414 -1072q-22 -57 -63 -57h-241q-46 0 -46 50q0 14 7 32l330 831h-469q-57 0 -57 59z" />
<glyph unicode="8" horiz-adv-x="1154" d="M78 343q0 151 40 227q39 68 125 103l41 17q14 7 -20 21q-117 55 -117 252q0 281 369 281h120q179 0 274 -77t95 -204q0 -188 -119 -249q-23 -10 -23 -19q0 -2 5 -5l46 -17q86 -31 123.5 -104t37.5 -226q0 -208 -130 -302q-112 -76 -335 -76h-67q-226 0 -336 74 q-129 91 -129 304zM413 369q0 -74 43 -99q30 -16 110 -16h20q81 0 110 14q43 24 43 101v31q0 60 -35 84t-120 24h-25q-83 0 -114.5 -24t-31.5 -84v-31zM447 858q0 -60 18 -81.5t73 -21.5h72q96 0 96 103v29q0 103 -127 103q-72 0 -98 -18q-34 -21 -34 -85v-29z" />
<glyph unicode="9" horiz-adv-x="1154" d="M110 819q0 192 108 302.5t292 110.5h142q393 0 393 -393v-448q0 -178 -96 -286q-108 -121 -318 -121h-34q-319 0 -398 32q-21 11 -21 41v183q0 50 48 45q52 -4 341 -4h30q76 0 103 48q18 35 18 131v65q0 12 -7 14q-9 5 -16 -7q-62 -86 -206 -86h-12q-185 0 -269 73 q-98 89 -98 300zM439 796q0 -55 18 -75q25 -26 96 -26h55q65 0 87.5 21.5t22.5 79.5v21q0 70 -28.5 94t-97.5 24h-27q-76 0 -101 -20.5t-25 -97.5v-21z" />
<glyph unicode=":" horiz-adv-x="455" d="M47 180q0 98 27.5 129t125.5 31t130 -33q23 -31 23 -127q0 -93 -29.5 -125t-123.5 -32q-98 0 -125.5 32t-27.5 125zM47 805q0 98 27.5 129t125.5 31t130 -33q23 -31 23 -127q0 -94 -29.5 -125t-123.5 -31q-98 0 -125.5 31t-27.5 125z" />
<glyph unicode=";" horiz-adv-x="452" d="M19 -191l91 500q12 55 70 55h103q28 0 45 -27.5t10 -58.5l-36 -150q-41 -168 -190 -329q-25 -28 -48 -28q-52 0 -45 38zM48 805q0 98 27.5 129t125.5 31q99 0 130 -33q24 -31 24 -127q0 -94 -30 -125t-124 -31q-98 0 -125.5 31t-27.5 125z" />
<glyph unicode="&#x3c;" horiz-adv-x="816" d="M71 464v229q0 45 53 76l494 290q29 17 50 17q29 0 29 -31v-211q0 -41 -55 -70l-359 -184l359 -187q55 -27 55 -70v-208q0 -31 -29 -31q-21 0 -50 17l-494 287q-53 33 -53 76z" />
<glyph unicode="=" horiz-adv-x="816" d="M95 268v185q0 43 52 43h518q55 0 55 -43v-185q0 -42 -55 -42h-518q-52 0 -52 42zM95 693v187q0 40 52 40h518q55 0 55 -40v-187q0 -41 -55 -41h-518q-52 0 -52 41z" />
<glyph unicode="&#x3e;" horiz-adv-x="816" d="M108 115v208q0 43 55 70l359 187l-359 184q-55 29 -55 70v211q0 31 29 31q21 0 50 -17l494 -290q53 -31 53 -76v-229q0 -43 -53 -76l-494 -287q-29 -17 -50 -17q-29 0 -29 31z" />
<glyph unicode="?" horiz-adv-x="999" d="M83 1035v184q0 34 21 41q91 32 293 32h9q226 0 329 -62q119 -73 119 -245q0 -155 -48 -228q-38 -60 -160 -129l-17 -10q-60 -33 -74 -48q-31 -26 -37 -72l-2 -18q-7 -53 -57 -53h-163q-39 0 -47 25t-8 111v55q0 123 131 189l59 32q85 43 85 83q0 54 -31 68t-125 14h-45 q-86 0 -186 -12q-46 -5 -46 43zM212 149q0 96 39.5 140t138.5 44q96 0 136 -43t40 -141q0 -179 -176 -179q-178 0 -178 179z" />
<glyph unicode="@" horiz-adv-x="1905" d="M92 436q0 262 121 481q126 228 351 349.5t496 121.5q461 0 635 -337q83 -161 83 -338q0 -188 -78 -356q-84 -184 -234 -275q-133 -82 -288 -82q-202 0 -202 176q0 53 23 140q-84 -140 -129 -191q-110 -125 -216 -125q-85 0 -130 71q-37 60 -37 151q0 336 250 591 q71 74 165 124q48 26 102 26q118 0 141 -157l34 119l245 10l-184 -628q-30 -106 -30 -156q0 -33 23.5 -55.5t57.5 -22.5q99 0 212 108q95 92 147 198q71 147 71 315q0 281 -179 455.5t-461 174.5q-249 0 -449 -116t-317.5 -335.5t-117.5 -471.5q0 -345 218.5 -566 t563.5 -221q276 0 499 146q227 150 321 405h61q-118 -290 -344 -447q-229 -160 -539 -160q-385 0 -635 246.5t-250 631.5zM744 275q0 -92 60 -92q63 0 164 160q132 212 132 416q0 133 -72 133q-83 0 -182 -233q-102 -239 -102 -384z" />
<glyph unicode="A" horiz-adv-x="1480" d="M16 37q80 17 121 60q48 50 116 205l465 1058q11 24 27 24q17 0 28 -26l473 -1085q69 -158 115 -200q20 -19 96 -36q14 -3 14 -19v-2q0 -16 -14 -16h-657q-16 0 -17 19q-1 18 17 18h27q134 0 134 68q0 16 -6 37q-4 14 -31 76l-71 168h-480l-57 -132q-27 -62 -27 -109 q0 -57 46 -84q21 -13 133 -24q20 -2 20 -18q0 -19 -20 -19h-452q-17 0 -17 16q0 18 17 21zM408 460h411l-202 480z" />
<glyph unicode="B" horiz-adv-x="1366" d="M21 20q0 17 22 17q144 0 175 62q14 29 14 139v881q0 84 -5 104q-11 56 -57 79q-34 18 -127 18q-22 0 -22 18t22 18h651q178 0 267 -21q142 -36 215 -144q56 -83 56 -175q0 -216 -321 -296q192 -46 272 -109q111 -93 111 -237q0 -154 -123 -253q-150 -121 -439 -121h-689 q-22 0 -22 20zM546 183q-2 -109 109 -109q177 0 252 139q35 67 35 150q0 211 -165 276q-75 29 -219 29h-10zM548 746q237 0 312 122q36 59 36 149q0 172 -137 235q-63 28 -201 28h-10v-534z" />
<glyph unicode="C" horiz-adv-x="1480" d="M81 653q0 196 102 370t273.5 269.5t390.5 95.5q192 0 372 -62q149 -52 149 -117v-236q0 -35 -20 -35q-24 0 -38 42q-46 139 -146 219q-120 99 -271 99q-129 0 -233.5 -72t-155.5 -193q-63 -152 -63 -336q0 -409 191 -558q97 -76 254 -76q127 0 234 56q94 49 162 126 q32 35 56 35t24 -28q0 -37 -40 -75q-117 -113 -215 -155q-124 -54 -289 -54q-207 0 -371 81q-180 88 -275 258q-91 162 -91 346z" />
<glyph unicode="D" horiz-adv-x="1480" d="M32 1338q0 18 25 18h577q488 0 666 -311q93 -164 93 -371q0 -284 -165 -462q-139 -150 -402 -200q-63 -12 -192 -12h-570q-28 0 -28 19q0 18 25 18q70 0 101.5 19t46.5 50q9 20 9 126v892q0 83 -3 100q-9 51 -52 76q-34 20 -102 20q-29 0 -29 18zM544 221q0 -113 35 -132 q28 -15 79 -15q166 0 255 114q119 155 119 478q0 476 -249 584q-72 30 -239 30v-1059z" />
<glyph unicode="E" horiz-adv-x="1366" d="M20 1340q0 16 21 16h1040q95 0 95 -94v-265q0 -33 -20 -33q-19 0 -26 30q-26 112 -70 168q-51 66 -152 98q-60 19 -210 19h-140v-552h27q133 0 216 76q80 72 92 196q2 26 22 26q16 0 16 -26v-605q0 -22 -17 -22q-19 0 -21 22q-18 165 -151 232q-52 26 -184 26v-383 q0 -90 1 -97q7 -57 45 -81q27 -16 83 -16h82q189 0 304 88q103 79 153 223q11 32 32 32q11 0 11 -19q0 -6 -1 -15l-37 -265q-17 -119 -123 -119h-1067q-19 0 -19 16q0 18 19 21l69 12q23 4 71 21q26 14 40 48q11 25 11 125v870q0 96 -5 113q-9 33 -36 53t-81 29l-69 12 q-21 3 -21 20z" />
<glyph unicode="F" horiz-adv-x="1251" d="M20 1340q0 16 21 16h1054q95 0 95 -94v-265q0 -33 -20 -33q-19 0 -26 30q-27 112 -70 168q-51 66 -152 98q-56 19 -209 19h-153v-564h27q134 0 216 76q78 72 90 196q2 26 22 26q16 0 16 -26v-604q0 -23 -17 -23q-19 0 -21 23q-18 163 -151 231q-52 26 -182 26v-400 q0 -95 13 -125q16 -34 41 -48q19 -12 70 -19l69 -11q20 -3 20 -22q0 -15 -20 -15h-712q-19 0 -19 15q0 19 19 22l69 12q28 5 71 29q26 14 40 48q13 31 13 126v861q0 85 -7 113q-9 34 -36 53.5t-81 28.5l-69 12q-21 3 -21 20z" />
<glyph unicode="G" horiz-adv-x="1593" d="M83 660q0 317 221 525q217 204 535 204q297 0 453 -68q77 -34 83 -38q38 -28 38 -86v-211q0 -46 -23 -46q-21 0 -37 38q-66 150 -177 235q-127 96 -294 96q-306 0 -395 -324q-42 -153 -42 -313q0 -196 45 -343q51 -162 149 -227q85 -58 220 -58q229 0 229 210v200 q0 65 -10 89q-3 13 -27 38q-62 34 -102 37l-24 1q-30 2 -30 23q0 20 30 20h624q34 0 34 -15q0 -16 -34 -21q-57 -8 -81 -21q-29 -15 -45 -52q-10 -19 -10 -92v-240q0 -151 -270 -223q-111 -30 -291 -30q-329 0 -547 191q-222 194 -222 501z" />
<glyph unicode="H" horiz-adv-x="1593" d="M21 15q0 19 19 22l68 12q29 5 72 29q25 14 40 48q13 31 13 126v864q0 95 -14 127t-39 48q-20 10 -71 18l-69 11q-19 2 -19 21q0 15 19 15h712q20 0 20 -15q0 -18 -20 -21l-68 -12q-29 -5 -71 -29q-26 -15 -40 -47.5t-14 -127.5v-363h480v375q0 95 -13.5 127t-39.5 48 q-20 10 -70 18l-70 11q-19 2 -19 21q0 15 19 15h712q20 0 20 -15q0 -18 -20 -21l-67 -12q-29 -5 -72 -29q-26 -15 -40 -47.5t-14 -127.5v-864q0 -95 13 -125q15 -34 41 -48q19 -12 70 -19l69 -11q20 -3 20 -22q0 -15 -20 -15h-712q-19 0 -19 15q0 19 19 22l69 12q28 5 71 29 q26 14 40 48q13 31 13 126v400h-480v-412q0 -95 13 -125q15 -34 41 -48q19 -12 70 -19l69 -11q20 -3 20 -22q0 -15 -20 -15h-712q-19 0 -19 15z" />
<glyph unicode="I" horiz-adv-x="797" d="M20 15q0 19 19 22l67 12q30 5 73 29q25 14 40 48q13 31 13 126v864q0 95 -14 127t-39 48q-20 10 -71 18l-69 11q-19 2 -19 21q0 15 19 15h712q20 0 20 -15q0 -18 -20 -21l-68 -12q-29 -5 -71 -29q-26 -15 -40 -47.5t-14 -127.5v-864q0 -95 13 -125q15 -34 41 -48 q19 -12 70 -19l69 -11q20 -3 20 -22q0 -15 -20 -15h-712q-19 0 -19 15z" />
<glyph unicode="J" horiz-adv-x="1024" d="M22 259q0 66 41 111t107 45q59 0 101.5 -38t42.5 -97q0 -30 -7 -48q-4 -12 -33 -54q-26 -36 -26 -55q0 -36 47 -57q36 -16 78 -16q88 0 110 90q12 47 12 259v705q0 107 -14 139t-39 48q-20 10 -71 18l-69 11q-19 2 -19 21q0 15 19 15h712q20 0 20 -15q0 -18 -20 -21 l-67 -12q-30 -5 -72 -29q-26 -15 -40 -47.5t-14 -127.5v-644q0 -166 -25 -246q-38 -117 -152 -186q-100 -60 -240 -60t-253 73q-129 83 -129 218z" />
<glyph unicode="K" horiz-adv-x="1593" d="M26 15q0 19 18 22l68 12q30 5 73 29q24 14 40 48q13 31 13 126v864q0 95 -14.5 127t-38.5 48q-20 10 -72 18l-69 11q-18 2 -18 21q0 15 18 15h713q20 0 20 -15q0 -18 -20 -21l-68 -12q-29 -5 -71 -29q-26 -15 -40 -47.5t-14 -127.5v-402l502 407q105 86 105 136 q0 34 -43 56q-15 8 -109 19q-25 2 -25 21q0 15 25 15h530q25 0 25 -12q0 -21 -25 -24q-75 -11 -137 -42q-24 -13 -161 -122l-398 -318l477 -598q101 -127 175 -171q37 -22 112 -32q22 -3 22 -17q0 -20 -22 -20h-707q-18 0 -17 16q1 18 17 21q37 5 87 21q20 15 20 37 q0 42 -93 158l-311 392l-49 -41v-364q0 -95 13 -125q15 -34 41 -48q18 -12 70 -19l69 -11q20 -3 20 -22q0 -15 -20 -15h-713q-18 0 -18 15z" />
<glyph unicode="L" horiz-adv-x="1366" d="M14 16q0 17 21 21l69 12q55 9 82 28.5t36 53.5q7 27 7 112v861q0 95 -14 127.5t-39 47.5q-17 10 -72 29l-69 12q-19 3 -19 21q0 15 19 15h714q19 0 19 -15q0 -19 -19 -21l-70 -11q-23 -2 -71 -18q-25 -16 -38.5 -48t-13.5 -127v-870q0 -101 36.5 -134.5t138.5 -33.5h58 q139 0 196 18q79 25 136.5 95.5t119.5 263.5q11 31 30 31q18 0 18 -23q0 -4 -1 -10l-35 -359q-9 -94 -95 -94h-1123q-21 0 -21 16z" />
<glyph unicode="M" horiz-adv-x="1934" d="M14 16q0 21 27 21h14q99 0 143 57q21 25 31 72q3 10 3 102v859q0 82 -4 98q-9 50 -52 75q-34 20 -92 20h-43q-21 0 -21 17q0 19 21 19h460q95 0 131 -87l344 -807l331 804q37 90 123 90h467q23 0 23 -16q0 -20 -23 -20h-45q-104 0 -136 -68q-10 -25 -10 -125v-895 q0 -83 2 -99q10 -51 54 -77q34 -19 90 -19h45q23 0 23 -15q0 -22 -23 -22h-708q-24 0 -24 16q0 21 24 21h43q105 0 137 69q10 25 10 126v957h-19l-478 -1134q-14 -34 -36 -34q-19 0 -31 28l-489 1134h-19v-910q0 -102 5 -123q12 -49 57 -81q23 -18 136 -32q17 -2 13 -19 q-2 -18 -13 -18h-464q-27 0 -27 16z" />
<glyph unicode="N" horiz-adv-x="1480" d="M0 21q0 15 29 16q116 5 156 46q44 46 44 153v957l-29 37q-43 52 -76 70q-13 6 -95 20q-29 4 -29 21q0 15 29 15h381q63 0 101 -23q32 -19 76 -75l592 -743v584q0 122 -36 166q-40 47 -160 55q-21 1 -21 20q0 16 21 16h448q26 0 26 -12q0 -20 -26 -24q-48 -10 -115 -29 q-63 -38 -63 -192v-1073q0 -41 -26 -41q-21 0 -49 35l-876 1079v-863q0 -199 177 -199h31q25 0 25 -17q0 -20 -25 -20h-481q-29 0 -29 21z" />
<glyph unicode="O" horiz-adv-x="1593" d="M80 682q0 302 205 504q194 190 506 190q336 0 526 -190q204 -202 204 -503q0 -256 -152 -454q-201 -261 -565 -261q-365 0 -566 250q-158 195 -158 464zM441 673q0 -347 122 -513q85 -116 238 -116q220 0 309 254q49 141 49 368q0 464 -177 591q-78 55 -178 55 q-363 0 -363 -639z" />
<glyph unicode="P" horiz-adv-x="1251" d="M29 22q0 14 22 15q101 4 128 18q47 23 57 80q4 19 4 103v881q0 84 -4 104q-11 56 -57 79q-13 7 -128 18q-22 2 -22 20q0 16 22 16h593q223 0 362 -69q184 -92 184 -295q0 -138 -88 -233q-82 -87 -221 -121q-99 -24 -328 -24v-376q0 -85 4 -105q12 -56 57 -79 q13 -6 128 -17q22 -2 22 -19q0 -18 -22 -18h-691q-22 0 -22 22zM553 693q33 -3 51 -3q254 0 254 297q0 292 -264 292h-41v-586z" />
<glyph unicode="Q" horiz-adv-x="1593" d="M80 680q0 310 205.5 509t517.5 199q310 0 514 -199t204 -509q0 -248 -147 -446q-155 -205 -395 -246q93 -268 386 -268q14 0 42.5 4.5t43.5 4.5q41 1 41 -23q0 -25 -41 -38q-120 -38 -270 -38q-191 0 -334 92q-147 93 -220 266q-251 53 -400 245q-147 188 -147 447z M441 677q0 -348 123 -516q87 -117 237 -117q151 0 237 115q124 166 124 496q0 325 -77 473q-98 184 -284 184q-207 0 -297 -231q-63 -160 -63 -404z" />
<glyph unicode="R" horiz-adv-x="1480" d="M7 1338q0 18 30 18h631q204 0 296 -18q165 -33 250 -141q73 -91 73 -214q0 -267 -302 -342l327 -458q48 -68 76 -91q67 -53 110 -55q34 -2 34 -17q0 -20 -34 -20h-320q-107 0 -168 87l-377 531h-89v-380q0 -84 4 -105q11 -56 57 -79q27 -13 127 -17q24 -1 24 -17 q0 -20 -24 -20h-695q-28 0 -28 19q0 18 28 18q146 0 176 62q13 29 13 139v881q0 84 -4 104q-10 56 -57 79q-34 18 -128 18q-30 0 -30 18zM544 689h57q119 0 178 17q94 25 138 101q40 66 40 173q0 303 -305 303h-108v-594z" />
<glyph unicode="S" horiz-adv-x="1139" d="M106 159v322q0 26 16 26t21 -26q41 -213 169 -329q126 -115 271 -115q98 0 168 53q77 57 77 151q0 98 -103 179q-52 40 -183 105q-151 74 -220 121q-118 81 -171 178q-45 78 -45 173q0 172 127 283q120 108 293 108q431 0 437 -140l10 -313q2 -32 -14 -32q-21 0 -27 32 q-26 153 -128 261q-111 117 -260 117q-87 0 -150 -46q-71 -50 -71 -134q0 -93 115 -174q45 -32 216 -117q192 -94 276 -173q128 -120 128 -286q0 -185 -145 -303q-136 -112 -324 -112q-240 0 -383 81q-62 35 -76 49q-24 23 -24 61z" />
<glyph unicode="T" horiz-adv-x="1366" d="M74 990v276q0 90 111 90h998q110 0 110 -90v-276q0 -24 -13 -24q-18 0 -23 24q-29 109 -58 158q-42 75 -120 112q-38 19 -134 19h-100v-1039q0 -82 2 -98q11 -52 54 -78q22 -13 91 -21l46 -6q29 -4 29 -21q0 -16 -29 -16h-710q-28 0 -28 19q0 15 28 18l44 6q59 7 80 15 q38 17 56 57q11 24 11 125v1039h-98q-137 0 -199 -59q-82 -76 -110 -230q-4 -27 -21 -27t-17 27z" />
<glyph unicode="U" horiz-adv-x="1480" d="M26 1338q0 18 22 18h701q28 0 28 -18t-28 -18h-35q-124 0 -151 -62q-13 -31 -13 -145v-665q0 -138 13 -191q23 -97 105 -148q62 -39 159 -39q222 0 304 186q38 84 38 303v554q0 149 -67 183q-45 24 -126 24q-32 0 -32 18t32 18h469q26 0 26 -18t-26 -18h-28 q-116 0 -151 -93q-13 -34 -13 -114v-516q0 -220 -20 -301q-35 -144 -165 -239q-121 -89 -333 -89q-176 0 -272 47q-135 67 -190 176q-48 94 -48 257v665q0 85 -4 106q-10 61 -55 84q-31 17 -109 17h-9q-22 0 -22 18z" />
<glyph unicode="V" horiz-adv-x="1480" d="M-11 1340q0 16 27 16h650q25 0 25 -19q0 -17 -25 -17h-21q-144 0 -144 -67q0 -29 62 -173l289 -676l269 601q69 157 69 209q0 64 -62 88q-45 18 -115 18q-28 2 -28 21q0 15 28 15h446q25 0 25 -18q0 -17 -25 -18q-75 -13 -132 -80q-41 -47 -125 -235l-438 -970 q-22 -49 -47 -49q-23 0 -43 47l-438 1014q-37 88 -75 176q-51 86 -145 97q-27 0 -27 20z" />
<glyph unicode="W" horiz-adv-x="2048" d="M18 1320v36h588v-36q-118 -4 -118 -70q0 -40 49 -162l267 -657l213 513l-56 144q-37 93 -50 118q-37 74 -79 96q-33 18 -96 18v36h657v-36q-50 -1 -70 -5q-45 -7 -62 -30q-11 -17 -11 -38q0 -23 44 -140l248 -643l221 581q51 134 51 185q0 86 -135 90v36h352v-36 q-74 -6 -110 -76q-15 -28 -63 -156l-426 -1120h-39l-335 876l-371 -876h-36l-447 1108q-59 148 -62 154q-47 83 -124 90z" />
<glyph unicode="X" horiz-adv-x="1480" d="M-9 16q0 17 23 21q89 13 140 48q67 46 188 192l269 328l-345 508q-85 123 -98 139q-46 56 -125 68q-22 -3 -22 17q0 19 22 19h673q27 0 27 -20q0 -16 -27 -16h-34q-104 0 -104 -66q0 -22 7 -37l69 -104l169 -257l142 176q110 134 110 188q0 60 -59 87q-30 13 -91 13 q-25 0 -25 15q0 21 25 21h500q25 0 25 -16q0 -20 -25 -20q-103 -3 -173 -66q-26 -23 -130 -148l-256 -310l373 -556q71 -105 92 -129q61 -65 135 -74q21 -5 21 -21t-21 -16h-662q-27 0 -27 19q0 16 27 18q125 10 125 68q0 18 -7 32q-13 29 -70 112l-198 293l-207 -253 q-92 -113 -92 -156q0 -66 94 -90q24 -6 86 -6q24 -5 24 -21t-24 -16h-521q-23 0 -23 16z" />
<glyph unicode="Y" horiz-adv-x="1473" d="M-8 1337q0 19 26 19h650q26 0 26 -18t-26 -18h-29q-105 0 -105 -54q0 -34 79 -180l246 -450l243 409q91 153 91 200q0 67 -151 75q-25 2 -25 20q0 16 25 16h415q23 0 23 -20q0 -14 -23 -16q-68 -10 -103 -40q-42 -35 -158 -228l-295 -492v-328q0 -94 11 -119.5t44 -45.5 q16 -10 86 -19l77 -11q21 -3 21 -19q0 -18 -21 -18h-762q-26 0 -26 16q0 17 26 21l71 11q35 3 95 21q27 14 41 48q12 25 12 115v272l-320 582q-73 134 -90 154q-61 79 -148 80q-26 -3 -26 17z" />
<glyph unicode="Z" horiz-adv-x="1366" d="M56 27q0 10 7 22l769 1233h-201q-117 0 -155 -7q-154 -29 -234 -154q-33 -50 -63 -162q-6 -21 -21 -21q-19 0 -16 21l28 294q6 61 30.5 82t83.5 21h908q34 0 34 -25q0 -12 -9 -28l-764 -1227h258q181 0 257 23q119 37 204 133q93 104 120 258q4 29 23 29q16 0 16 -20 q0 -4 -1 -9l-42 -375q-13 -115 -125 -115h-1069q-38 0 -38 27z" />
<glyph unicode="[" horiz-adv-x="811" d="M191 -321q0 -79 73 -79h451q61 0 61 58v129q0 60 -61 60h-220v1481h220q61 0 61 60v128q0 59 -61 59h-451q-73 0 -73 -80v-1816z" />
<glyph unicode="\" horiz-adv-x="661" d="M0 1397l215 2l436 -1404h-206z" />
<glyph unicode="]" horiz-adv-x="811" d="M35 -213q0 60 57 60h223v1481h-223q-57 0 -57 60v128q0 59 57 59h453q74 0 74 -80v-1816q0 -79 -74 -79h-453q-57 0 -57 58v129z" />
<glyph unicode="^" horiz-adv-x="1123" d="M76 546l428 887q20 41 55 41q37 0 55 -41l430 -887h-161l-321 681l-326 -681h-160z" />
<glyph unicode="_" horiz-adv-x="1198" d="M0 -163h1198v-105h-1198v105z" />
<glyph unicode="`" horiz-adv-x="797" d="M138 1626h261l124 -403l-64 -11z" />
<glyph unicode="a" horiz-adv-x="1161" d="M104 194q0 161 212 301q81 53 347 175v107q0 95 -3 115q-11 60 -59 92q-36 22 -82 22q-73 0 -121 -33q-29 -19 -29 -46q0 -24 31 -60q43 -48 43 -94q0 -60 -43.5 -97t-105.5 -37q-66 0 -115 38q-53 43 -53 106q0 95 79 172q66 64 166 98q116 40 241 40q117 0 209 -47 q109 -55 144 -157q15 -45 15 -219v-461q0 -93 52 -93q37 0 61 15q13 9 26 9q19 0 19 -19q0 -16 -16 -36l-77 -55q-63 -44 -211 -44q-147 0 -172 164q-186 -165 -346 -165q-91 0 -151.5 59t-60.5 150zM415 298q0 -51 33 -86.5t84 -35.5q54 0 90 35q41 39 41 110v273 q-248 -145 -248 -296z" />
<glyph unicode="b" horiz-adv-x="1292" d="M67 1299q-1 3 -1 6q0 6 5 10q179 90 376 195q8 8 17 8q5 0 11 -3q14 -7 14 -22v-539q76 72 117 95q75 43 183 43q156 0 279 -138.5t123 -417.5q0 -231 -142 -396q-150 -174 -383 -174q-198 0 -330 52q-160 63 -160 100v1147q0 27 -48 27h-4q-18 0 -40 -4q-15 -2 -17 11z M489 267q0 -107 55 -169q45 -51 101 -51q126 0 172 124q39 105 39 371q0 194 -26 282q-45 138 -169 138q-67 0 -119.5 -50t-52.5 -98v-547z" />
<glyph unicode="c" horiz-adv-x="1031" d="M89 512q0 218 116 382q139 199 384 199q133 0 237 -66q122 -76 122 -202q0 -142 -142 -142q-146 0 -165 203q-12 127 -93 127q-55 0 -94 -57q-59 -88 -59 -268q0 -138 40 -266q48 -153 138 -224q61 -49 148 -49q116 0 176 92q14 22 37 22q24 0 24 -25q0 -13 -8 -31 q-51 -105 -157 -170q-112 -69 -238 -69q-217 0 -347 168q-119 154 -119 376z" />
<glyph unicode="d" horiz-adv-x="1292" d="M90 531q0 242 119 398q126 163 315 163q88 0 149 -34q42 -23 119 -95v313q0 27 -45 27h-6q-18 0 -40 -3q-15 -2 -18 10q-2 12 5 17q164 75 381 183q10 6 18 6q5 0 10 -2q15 -6 15 -21v-1284q0 -93 50 -93q37 0 61 15q13 9 25 9q20 0 20 -19q0 -16 -16 -36l-77 -55 q-63 -44 -211 -44q-144 0 -177 143q-122 -161 -273 -161q-191 0 -314 160q-110 142 -110 403zM424 542q0 -434 182 -434q101 0 186 160v500q0 102 -77 157t-123 55q-105 0 -144 -146q-24 -96 -24 -292z" />
<glyph unicode="e" horiz-adv-x="1031" d="M90 512q0 232 122 397q134 184 358 184q161 0 279 -132q107 -119 120 -266v-12q0 -41 -24 -72q-35 -42 -104 -42h-446q11 -211 113 -334q78 -95 188 -95q68 0 124 39q50 34 87 99q21 38 44 38q20 0 20 -26q0 -17 -14 -41q-84 -147 -170 -208q-105 -73 -242 -73 q-236 0 -358 182q-97 146 -97 362zM390 645h227q80 0 80 73q0 113 -19 179t-61 102q-25 20 -64 20q-58 0 -97 -57q-66 -102 -66 -278v-39z" />
<glyph unicode="f" horiz-adv-x="774" d="M35 1026q0 35 28 35h166v131q0 182 134 287q123 95 309 95q99 0 175 -34q100 -45 100 -134q0 -58 -50 -94q-43 -32 -104 -32q-48 0 -85 25q-43 28 -43 74q0 11 7 41q4 21 4 37q0 52 -57 52q-33 0 -54 -25.5t-21 -112.5v-310h167q33 0 33 -35q0 -20 -71 -44 q-65 -21 -104 -21h-25v-734q0 -108 22 -133q45 -53 134 -53q23 0 23 -19q0 -22 -23 -22h-625q-21 0 -21 22q0 18 21 19q54 3 102 28q52 27 52 156v736h-27q-25 0 -91 21q-76 24 -76 44z" />
<glyph unicode="g" horiz-adv-x="1161" d="M88 -234q0 113 185 163q-148 72 -148 179q0 167 270 236q-169 62 -239 156q-68 90 -68 209q0 174 142 284q132 100 312 100q69 0 217 -45q65 -18 130 -18q81 0 184 30q6 2 10 2q30 0 30 -29q0 -24 -32 -42q-116 -66 -167 -67q104 -105 104 -229q0 -226 -234 -328 q-109 -46 -193 -46q-256 0 -256 -81q0 -62 186 -62h29l113 2h36q202 0 293 -52q128 -74 128 -224q0 -98 -61 -179q-59 -76 -153 -112q-146 -56 -337 -56q-322 0 -431 105q-50 49 -50 104zM278 -213q0 -152 319 -152q338 0 338 160q0 73 -109 94q-62 13 -330 13 q-117 0 -153 -19q-65 -35 -65 -96zM406 681q0 -295 151 -295q159 0 159 305q0 332 -153 332q-157 0 -157 -342z" />
<glyph unicode="h" horiz-adv-x="1292" d="M58 21q0 16 22 20q71 12 94 43q20 25 20 146v1035q0 27 -48 27h-3q-18 0 -41 -4q-14 -2 -17 11q-2 11 5 16q179 90 376 195q8 8 17 8q5 0 10 -3q15 -7 15 -22v-568q83 87 164 130q72 38 151 38q91 0 164.5 -52t100.5 -138q24 -77 24 -258v-415q0 -102 11 -129 q20 -50 103 -60q19 -2 19 -21q0 -20 -19 -20h-515q-18 0 -18 21q0 16 18 20q33 6 62 46q20 28 20 143v473q0 101 -1 116q-8 75 -43 102q-25 19 -55 19q-93 0 -183 -141v-569q0 -112 18 -141q23 -40 65 -48q20 -4 18 -22q-1 -19 -18 -19h-514q-22 0 -22 21z" />
<glyph unicode="i" horiz-adv-x="645" d="M18 987q0 16 16 36q2 3 77 55q65 44 198 44q182 0 182 -178v-746q0 -94 53 -94q37 0 61 15q13 10 23 10q13 0 13 -14q0 -18 -19 -41.5t-65 -54.5q-63 -45 -211 -45q-69 0 -116 39q-54 45 -54 127v759q0 93 -52 93q-37 0 -61 -15q-13 -9 -26 -9q-19 0 -19 19zM159 1399 q0 74 51 125t123 51q74 0 125.5 -51t51.5 -125q0 -72 -51.5 -123t-125.5 -51q-72 0 -123 51t-51 123z" />
<glyph unicode="j" horiz-adv-x="774" d="M-64 -308q0 49 33 86.5t82 37.5q93 0 93 -101q0 -12 -2 -33.5t-2 -32.5q0 -78 66 -78q63 0 63 87q0 19 -7 93q-12 131 -13 152l-3 268v728q0 93 -52 93q-37 0 -61 -15q-12 -9 -24 -9q-20 0 -20 19q0 16 15 36q4 3 77 55q65 44 198 44q183 0 183 -178l1 -981 q0 -156 -19 -229q-63 -236 -336 -236q-111 0 -182 41q-90 51 -90 153zM230 1402q0 72 50.5 122t123.5 50q72 0 123 -50t51 -122q0 -73 -51 -124t-123 -51q-73 0 -123.5 51t-50.5 124z" />
<glyph unicode="k" horiz-adv-x="1292" d="M56 1521q0 18 20 18h549q17 0 17 -18q-1 -19 -17 -23q-76 -17 -95.5 -42.5t-19.5 -147.5v-710q0 -36 24 -36q11 0 24 12l198 195q113 111 113 169q0 31 -24 52q-15 12 -99 29q-24 6 -24 26q0 16 24 16h477q18 0 18 -16q0 -21 -18 -26q-44 -7 -120 -33q-52 -29 -200 -173 l-116 -113l251 -367q152 -223 179 -249q35 -34 97 -43q24 -4 24 -23q0 -18 -24 -18h-548q-24 0 -24 21q0 15 24 20q21 2 53 14q16 13 16 29q0 27 -48 96l-209 308l-68 -67v-191q0 -121 22 -152q16 -20 93 -37q20 -5 20 -23t-20 -18h-548q-19 0 -17 19q0 17 17 22 q75 17 95 42.5t20 146.5v1078q0 122 -22 152q-17 21 -94 38q-20 4 -20 23z" />
<glyph unicode="l" horiz-adv-x="645" d="M69 1304q0 8 5 11q179 90 375 195q8 8 17 8q5 0 11 -3q14 -7 14 -22v-1295q0 -94 53 -94q37 0 61 15q13 10 23 10q13 0 13 -14q0 -18 -19 -41.5t-65 -54.5q-63 -45 -211 -45q-69 0 -116 39q-54 44 -54 127l2 1125q0 27 -48 27h-4q-17 0 -39 -4q-18 -2 -18 16z" />
<glyph unicode="m" horiz-adv-x="1936" d="M44 958q0 17 17 35q0 1 77 55q63 45 211 45q63 0 110.5 -46.5t58.5 -124.5q158 171 326 171q203 0 277 -193q172 193 349 193q207 0 266 -179q25 -77 25 -248v-434q0 -123 21 -150.5t94 -40.5q17 -4 17 -20q0 -21 -17 -21h-548q-22 0 -22 18t22 23q72 16 95 50 q21 30 21 141v456q0 201 -47 237q-25 19 -57 19q-99 0 -200 -143v-569q0 -114 18 -144q26 -40 101 -47q19 -2 19 -19q0 -22 -19 -22h-550q-23 0 -23 19q0 20 23 22q85 8 104 70q8 27 8 121v456q0 109 -1 125q-8 82 -48 112q-27 20 -57 20q-95 0 -197 -144v-569 q0 -113 23 -149q19 -32 92 -42q22 -4 22 -21q0 -20 -22 -20h-546q-23 0 -23 20q0 17 23 21q70 10 94 43q20 25 20 148l1 637q0 94 -51 94q-38 0 -61 -15q-13 -8 -26 -8q-20 0 -20 18z" />
<glyph unicode="n" horiz-adv-x="1292" d="M36 958q0 17 17 35q1 1 77 55q63 45 212 45q63 0 110.5 -45t58.5 -124q157 169 319 169q208 0 262 -200q18 -67 18 -248v-413q0 -123 23 -154q16 -23 92 -37q18 -4 18 -20q0 -21 -18 -21h-537q-19 0 -18 18q0 17 18 23q77 28 94 67q10 23 10 124v471q0 184 -44 218 q-25 19 -54 19q-98 0 -183 -140v-568q0 -120 23 -151q8 -12 83 -40q21 -8 21 -25q0 -16 -21 -16h-537q-20 0 -19 18q0 17 19 23q53 16 55 16q28 11 39 27q20 25 20 148v637q0 94 -51 94q-38 0 -61 -15q-13 -8 -25 -8q-21 0 -21 18z" />
<glyph unicode="o" horiz-adv-x="1161" d="M84 525q0 234 128 395q139 173 367 173q143 0 260.5 -73t178.5 -203t61 -287q0 -226 -114 -378q-139 -184 -382 -184q-231 0 -369 167q-130 155 -130 390zM417 438q0 -122 16 -227q24 -164 146 -164q115 0 144 136q22 107 22 436q0 302 -84 370q-30 23 -77 23 q-132 0 -155 -216q-12 -129 -12 -358z" />
<glyph unicode="p" horiz-adv-x="1292" d="M14 958q0 17 16 35q0 1 78 55q62 45 211 45q64 0 111 -46.5t59 -124.5q55 81 114 118q84 53 180 53q124 0 222 -81q90 -74 137 -197q50 -129 50 -279q0 -355 -202 -499q-98 -69 -218 -69q-161 0 -283 140v-395q0 -101 22 -131q18 -24 93 -38q18 -4 17 -23q0 -18 -17 -18 h-542q-18 0 -18 17q2 18 18 24q51 18 54 20q26 11 37 30q18 28 18 119v1156q0 94 -50 94q-39 0 -61 -15q-14 -8 -26 -8q-20 0 -20 18zM489 222q97 -138 209 -138q160 0 160 427q0 444 -181 444q-114 0 -188 -166v-567z" />
<glyph unicode="q" horiz-adv-x="1292" d="M89 486q0 160 64 299q70 152 197 232q123 76 258 76q183 0 284 -124q91 110 179 135q8 2 14 2q24 0 24 -38v-1358q0 -98 22 -128q17 -24 93 -38q17 -4 17 -20q0 -21 -17 -21h-542q-19 0 -17 17q0 18 17 24q50 18 53 20q27 11 38 30q18 28 18 116v401q-68 -71 -129 -102 q-82 -41 -166 -41q-200 0 -316 178q-91 142 -91 340zM420 507q0 -411 179 -411q101 0 192 118v438q0 141 -7 186q-18 103 -86 158q-26 21 -70 21q-208 0 -208 -510z" />
<glyph unicode="r" horiz-adv-x="1031" d="M44 958q0 17 17 35q6 9 78.5 54.5t222.5 45.5q156 0 156 -170v-103q175 273 338 273q141 0 141 -150q0 -64 -31 -109q-35 -51 -96 -51q-52 0 -88 29q-65 51 -72 55q-10 5 -22 5q-89 0 -133 -135q-37 -110 -37 -243v-262q0 -117 24 -151q9 -13 37.5 -22.5t55.5 -17.5 q21 -8 21 -25q0 -16 -21 -16h-547q-20 0 -20 18q1 17 20 23q52 16 55 16q28 11 40 27q19 25 19 148v637q0 94 -51 94q-39 0 -61 -15q-13 -8 -26 -8q-20 0 -20 18z" />
<glyph unicode="s" horiz-adv-x="932" d="M92 772q0 122 85 221.5t256 99.5q104 0 214 -31q64 -17 87 -39q29 -27 29 -85l3 -197h-38q-61 142 -144 208q-74 58 -148 58q-44 0 -78 -29.5t-34 -73.5q0 -30 22 -58q47 -60 212 -169q158 -103 211.5 -182.5t53.5 -176.5q0 -209 -170 -304q-81 -46 -190 -46 q-72 0 -174 24q-91 21 -121 38q-39 25 -47 33q-16 17 -16 49l3 241h38q39 -114 113 -197q91 -102 195 -102q51 0 87.5 31.5t36.5 82.5q0 66 -66 127q-19 19 -120 88q-172 118 -225 183q-75 94 -75 206z" />
<glyph unicode="t" horiz-adv-x="774" d="M20 970q-1 4 -1 7q0 11 13 17q148 78 255 195q77 85 163 249q12 22 27 22q23 0 23 -34v-365h216q35 0 35 -29q0 -26 -74 -53q-66 -24 -108 -24h-69v-661q0 -133 38 -162q21 -16 40 -16q78 0 139 112q11 19 26 19q16 0 16 -15q0 -10 -8 -28q-93 -219 -298 -219 q-88 0 -161 49q-76 50 -99 133q-12 40 -12 197v591h-138q-20 0 -23 15z" />
<glyph unicode="u" horiz-adv-x="1283" d="M29 958q0 17 17 35q20 24 77 55q81 45 212 45q66 0 115 -44q54 -47 54 -125v-588q0 -164 45 -197q23 -16 55 -16q40 0 73 21q109 71 109 201v524q0 94 -51 94q-38 0 -61 -15q-13 -8 -26 -8q-20 0 -20 18q0 17 15.5 34.5t78.5 55.5q74 45 212 45q66 0 115 -44 q54 -47 54 -125v-715q0 -93 51 -93q38 0 60 15q14 9 26 9q20 0 20 -19q0 -16 -16 -36l-78 -55q-62 -44 -210 -44q-151 0 -170 156q-146 -174 -323 -174q-84 0 -155.5 52.5t-96.5 131.5q-24 74 -24 258v459q0 94 -51 94q-39 0 -61 -15q-13 -8 -26 -8q-20 0 -20 18z" />
<glyph unicode="v" horiz-adv-x="1161" d="M8 1042q1 19 21 19h556q21 0 21 -20q0 -18 -21 -22q-29 -3 -73 -19q-26 -27 -26 -59q0 -44 49 -158l175 -398l139 344q61 147 61 208q0 35 -25 57q-9 8 -91 25q-16 4 -16 22q-1 20 16 20h342q19 0 20 -19q0 -18 -15 -23q-29 -8 -81 -37q-32 -31 -96 -181l-332 -782 q-22 -51 -46 -51q-29 0 -50 50l-337 773q-63 147 -101 188q-14 17 -77 40q-13 5 -13 23z" />
<glyph unicode="w" horiz-adv-x="1678" d="M27 1061h528q19 0 19 -20q-1 -21 -19 -22q-61 -5 -75 -16q-20 -16 -20 -37q0 -18 36 -114l156 -416l149 416l-11 27q-37 86 -61.5 109t-76.5 31q-17 2 -17 22q-1 20 17 20h543q18 0 18 -20t-18 -22q-67 -6 -80 -17q-18 -15 -18 -40q0 -20 33 -110l150 -416l137 382 q29 83 29 111q0 44 -22 65q-14 15 -83 25q-17 2 -18 22q0 20 18 20h313q19 0 19 -20t-19 -22q-71 -10 -110 -75q-12 -23 -51 -132l-281 -797q-17 -47 -48 -47q-35 0 -52 48l-272 730l-269 -735q-16 -43 -46 -43q-28 0 -44 43l-268 727q-64 176 -108 228q-28 36 -86 53 q-13 5 -13 21q0 21 21 21z" />
<glyph unicode="x" horiz-adv-x="1161" d="M36 1042q0 19 18 19h587q21 0 21 -20t-21 -22l-30 -1l-60 -20q-8 -8 -8 -27q0 -16 6 -35q3 -11 31 -61l82 -154l44 61q91 129 91 175q0 23 -20 40q-6 5 -71 22q-19 5 -19 27q0 15 19 15h375q22 0 22 -15q0 -23 -22 -27q-84 -13 -129 -42q-58 -40 -135 -157l-111 -169 l183 -350q98 -185 151 -232q21 -18 84 -28q20 -4 20 -20q0 -21 -20 -21h-590q-19 0 -18 20q2 19 18 21q72 8 86.5 19t14.5 34q0 31 -36 99l-91 172l-79 -115q-55 -78 -60 -92q-10 -21 -10 -39q0 -51 41 -70q13 -6 69 -8q17 -1 17 -21t-17 -20h-415q-17 0 -15 20q1 19 15 21 q56 9 74 14q38 9 66 28q66 43 187 224l88 128l-184 340q-88 165 -133 202q-27 23 -98 42q-19 5 -18 23z" />
<glyph unicode="y" horiz-adv-x="1161" d="M-1 1042q0 19 20 19h565q21 0 21 -17q0 -23 -21 -25q-60 -6 -79 -21q-23 -20 -23 -47q0 -41 57 -171l182 -415l124 322q66 173 66 238q0 41 -28 67q-14 13 -98 27q-19 4 -19 21q0 21 19 21h356q22 0 22 -17q0 -19 -22 -25q-62 -15 -86 -40q-32 -35 -110 -236l-303 -786 q-113 -294 -169 -363q-79 -96 -197 -96q-86 0 -146 48q-66 53 -66 136q0 63 39 107.5t102 44.5q124 0 126 -149q1 -68 36 -68q27 0 59 33q42 46 106 218l11 30q9 23 9 49q0 39 -21 86l-309 710q-59 137 -73 163q-54 87 -130 113q-20 7 -20 23z" />
<glyph unicode="z" horiz-adv-x="1031" d="M34 15q-2 6 -2 12q0 9 5 19l570 946h-171q-177 0 -234 -84q-25 -38 -52 -125q-7 -24 -27 -24q-22 0 -22 23v203q0 76 87 76h767q22 0 29 -19q3 -7 3 -14q0 -9 -5 -18l-567 -937h73q188 0 278 43q116 56 171 213q8 26 26 26q15 0 13 -29l-20 -229q-8 -97 -118 -97h-778 q-20 0 -26 15z" />
<glyph unicode="{" horiz-adv-x="835" d="M35 656q0 -73 35 -100l80 -58q64 -48 84 -79q28 -38 28 -98v-413q0 -308 331 -308h153q53 0 53 109q0 62 -2 73q-10 39 -51 39h-55q-81 0 -105 43q-17 31 -17 115v323q0 96 -27.5 149.5t-101.5 108.5l-130 94v14l130 91q76 55 102.5 99.5t26.5 135.5v204q0 87 17 115 q24 43 105 43h55q32 0 42.5 19.5t10.5 88.5q0 113 -53 113h-153q-153 0 -226 -45q-105 -68 -105 -240v-293q0 -59 -28 -98q-20 -26 -84 -76l-80 -61q-35 -26 -35 -108z" />
<glyph unicode="|" horiz-adv-x="535" d="M167 -335v1851q0 59 59 59h85q58 0 58 -68v-1842q0 -65 -60 -65h-83q-59 0 -59 65z" />
<glyph unicode="}" horiz-adv-x="835" d="M35 -291q0 62 2 73q12 39 53 39h55q80 0 105 43q17 31 17 115v251q0 96 27.5 150t102.5 109l129 94v14l-129 91q-80 55 -105 99.5t-25 134.5v276q0 87 -17 115q-23 43 -105 43h-55q-34 0 -44.5 19.5t-10.5 88.5q0 113 55 113h153q151 0 225 -45q106 -68 106 -240v-364 q0 -61 26 -98q21 -27 87 -78l78 -59q34 -27 34 -108q0 -75 -34 -101l-78 -57q-66 -48 -87 -80q-26 -38 -26 -98v-341q0 -308 -331 -308h-153q-55 0 -55 109z" />
<glyph unicode="~" horiz-adv-x="1295" d="M33 345q16 117 85 222q87 133 231 133q96 0 318.5 -85t303.5 -85q87 0 146 71q46 53 82 149q19 48 44 48q18 0 18 -32q0 -7 -2 -16q-48 -201 -139 -288q-81 -76 -189 -76q-103 0 -325.5 88.5t-293.5 88.5q-148 0 -224 -218q-15 -43 -39 -43q-23 0 -16 43z" />
<glyph unicode="&#xa2;" horiz-adv-x="1022" d="M129 453q0 251 155 391q122 103 273 103q22 0 62 -3l139 384h73l-144 -403q183 -84 183 -204q0 -83 -92 -83q-56 0 -87 38q-14 19 -24 69q-12 65 -19 76l-228 -629q91 -62 164 -62q129 0 203 85q28 37 81 147l32 -12q-94 -373 -386 -373q-79 0 -161 35l-141 -391h-72 l156 427q-167 158 -167 405zM289 535q0 -137 78 -286l226 616q-29 13 -59 13q-128 0 -192 -114q-53 -94 -53 -229z" />
<glyph unicode="&#xa3;" horiz-adv-x="1022" d="M60 105q0 71 46.5 113.5t119.5 42.5q33 0 83 -7q2 14 5 43v34q0 88 -22 328h-194v96h194q-14 148 -14 199q0 263 186 379q85 52 185 52q96 0 170 -52q84 -58 84 -151q0 -32 -24 -58.5t-54 -26.5q-39 0 -63 39q-12 16 -17 81q-4 58 -33 85.5t-86 27.5q-183 0 -183 -281 q0 -66 12 -187q2 -18 9 -107h259v-96h-259q3 -46 3 -67q0 -175 -62 -359q192 -63 223 -70q53 -12 103 -12q165 0 211 160l36 -9q-17 -132 -84 -220q-80 -105 -204 -105q-84 0 -175 52q-35 21 -151 108q-79 -160 -186 -160q-54 0 -86 36.5t-32 91.5zM117 112q0 -78 66 -78 q80 0 114 138q-43 27 -84 27q-96 0 -96 -87z" />
<glyph unicode="&#xa5;" horiz-adv-x="1022" d="M2 352v72h425v146l-15 36h-410v73h377l-214 496q-30 73 -57 103q-39 39 -106 39v39h441v-39q-120 -7 -120 -62q0 -14 17 -57l216 -519l213 503q20 50 20 76q0 52 -85 57q-7 0 -25 2v39h344v-39q-60 0 -86 -21q-45 -38 -86 -132l-213 -485h385v-73h-419l-7 -16v-166h426 v-72h-426v-107q0 -89 2 -99q7 -59 43.5 -82t86.5 -23h40v-41h-515v41h31q117 0 136 83q6 18 6 121v107h-425z" />
<glyph unicode="&#xa8;" horiz-adv-x="682" d="M57 1230q0 42 31 74.5t77 32.5t77 -31t31 -76q0 -46 -31 -77.5t-77 -31.5q-43 0 -75.5 31.5t-32.5 77.5zM410 1230q0 45 31 76t76 31q46 0 77.5 -31t31.5 -76q0 -46 -31.5 -77.5t-77.5 -31.5q-42 0 -74.5 31.5t-32.5 77.5z" />
<glyph unicode="&#xa9;" horiz-adv-x="1561" d="M71 679q0 190 98.5 359t265 259.5t347.5 90.5q188 0 356 -95t259 -258q94 -170 94 -356q0 -190 -96 -358t-264 -260.5t-349 -92.5q-190 0 -358 96t-260.5 263t-92.5 352zM135 679q0 -174 87 -327t239 -236.5t321 -83.5q174 0 326 87t237.5 239t85.5 321q0 174 -89 327 t-243.5 237.5t-316.5 84.5q-174 0 -326 -88t-236 -236q-85 -156 -85 -325zM323 673q0 205 149 336q141 127 349 127q71 0 185 -39q25 -7 36 -7q32 0 51 44h41l18 -279h-38q-72 235 -304 235q-163 0 -252 -125q-69 -98 -69 -263q0 -414 330 -414q197 0 315 162l35 -18 q-138 -204 -383 -204q-194 0 -328.5 126t-134.5 319z" />
<glyph unicode="&#xab;" horiz-adv-x="1198" d="M74 544l454 549h66l-285 -549l285 -553h-66zM594 544l460 549h70l-285 -549l285 -553h-70z" />
<glyph unicode="&#xad;" horiz-adv-x="816" d="M95 472v184q0 44 52 44h518q55 0 55 -44v-184q0 -43 -55 -43h-518q-52 0 -52 43z" />
<glyph unicode="&#xae;" horiz-adv-x="1557" d="M69 679q0 293 207.5 501t502.5 208t502 -206t207 -503q0 -295 -207 -503t-502 -208t-502.5 208t-207.5 503zM132 679q0 -269 189 -458t458 -189q268 0 457.5 187.5t189.5 459.5q0 270 -189.5 459.5t-457.5 189.5q-271 0 -459 -190.5t-188 -458.5zM373 249v34q70 0 89 31 q18 22 18 96v555q0 68 -13 87q-19 27 -81 27v35h385q121 0 201 -50q96 -60 96 -172q0 -165 -220 -224l209 -299q57 -81 120 -86v-34h-183l-294 405h-78v-309q0 -62 119 -62v-34h-368zM622 697q286 0 286 183q0 83 -57.5 137t-143.5 54q-39 0 -85 -17v-357z" />
<glyph unicode="&#xb4;" horiz-adv-x="682" d="M44 1107l353 322q57 50 105 50q82 0 82 -70q0 -51 -75 -92l-369 -210h-96zM344 1002z" />
<glyph unicode="&#xb8;" horiz-adv-x="796" d="M218 -398q34 -4 58 -4q55 0 98 36.5t43 92.5q0 35 -27.5 60.5t-66.5 25.5q-12 0 -31 -3l129 209h73l-60 -93q146 -36 146 -171q0 -95 -76.5 -152.5t-174.5 -57.5q-44 0 -111 7v50z" />
<glyph unicode="&#xbb;" horiz-adv-x="1198" d="M74 -9l285 551l-285 551h70l460 -551l-460 -551h-70zM604 -9l285 551l-285 551h66l454 -551l-454 -551h-66z" />
<glyph unicode="&#x2c6;" horiz-adv-x="796" d="M69 1234l223 385h213l224 -385h-36l-320 250l-268 -250h-36z" />
<glyph unicode="&#x591;" d="M97 833q0 129 90 219t217 90q130 0 219.5 -90t89.5 -219q0 -130 -89.5 -219t-219.5 -89q-127 0 -217 90.5t-90 217.5zM181 833q0 -91 64.5 -157t158.5 -66q93 0 158 66t65 157q0 96 -65 160.5t-158 64.5q-94 0 -158.5 -64.5t-64.5 -160.5z" />
<glyph unicode="&#x592;" d="M97 833q0 129 90 219t217 90q130 0 219.5 -90t89.5 -219q0 -130 -89.5 -219t-219.5 -89q-127 0 -217 90.5t-90 217.5zM181 833q0 -91 64.5 -157t158.5 -66q93 0 158 66t65 157q0 96 -65 160.5t-158 64.5q-94 0 -158.5 -64.5t-64.5 -160.5z" />
<glyph unicode="&#x593;" d="M183 833q0 -91 64 -157t158 -66q93 0 158 66t65 157q0 96 -65 160.5t-158 64.5q-94 0 -158 -64.5t-64 -160.5z" />
<glyph unicode="&#x594;" horiz-adv-x="431" d="M130 -254v1924q0 36 60 36h38q74 0 74 -46v-1907q0 -43 -74 -43h-38q-60 0 -60 36z" />
<glyph unicode="&#x595;" d="M97 833q0 129 90 219t217 90q130 0 219.5 -90t89.5 -219q0 -130 -89.5 -219t-219.5 -89q-127 0 -217 90.5t-90 217.5zM181 833q0 -91 64.5 -157t158.5 -66q93 0 158 66t65 157q0 96 -65 160.5t-158 64.5q-94 0 -158.5 -64.5t-64.5 -160.5z" />
<glyph unicode="&#x596;" d="M97 833q0 129 90 219t217 90q130 0 219.5 -90t89.5 -219q0 -130 -89.5 -219t-219.5 -89q-127 0 -217 90.5t-90 217.5zM181 833q0 -91 64.5 -157t158.5 -66q93 0 158 66t65 157q0 96 -65 160.5t-158 64.5q-94 0 -158.5 -64.5t-64.5 -160.5z" />
<glyph unicode="&#x597;" d="M97 833q0 129 90 219t217 90q130 0 219.5 -90t89.5 -219q0 -130 -89.5 -219t-219.5 -89q-127 0 -217 90.5t-90 217.5zM181 833q0 -91 64.5 -157t158.5 -66q93 0 158 66t65 157q0 96 -65 160.5t-158 64.5q-94 0 -158.5 -64.5t-64.5 -160.5z" />
<glyph unicode="&#x598;" d="M97 833q0 129 90 219t217 90q130 0 219.5 -90t89.5 -219q0 -130 -89.5 -219t-219.5 -89q-127 0 -217 90.5t-90 217.5zM181 833q0 -91 64.5 -157t158.5 -66q93 0 158 66t65 157q0 96 -65 160.5t-158 64.5q-94 0 -158.5 -64.5t-64.5 -160.5z" />
<glyph unicode="&#x599;" d="M97 833q0 129 90 219t217 90q130 0 219.5 -90t89.5 -219q0 -130 -89.5 -219t-219.5 -89q-127 0 -217 90.5t-90 217.5zM181 833q0 -91 64.5 -157t158.5 -66q93 0 158 66t65 157q0 96 -65 160.5t-158 64.5q-94 0 -158.5 -64.5t-64.5 -160.5z" />
<glyph unicode="&#x59a;" d="M97 833q0 129 90 219t217 90q130 0 219.5 -90t89.5 -219q0 -130 -89.5 -219t-219.5 -89q-127 0 -217 90.5t-90 217.5zM181 833q0 -91 64.5 -157t158.5 -66q93 0 158 66t65 157q0 96 -65 160.5t-158 64.5q-94 0 -158.5 -64.5t-64.5 -160.5z" />
<glyph unicode="&#x59b;" d="M97 833q0 129 90 219t217 90q130 0 219.5 -90t89.5 -219q0 -130 -89.5 -219t-219.5 -89q-127 0 -217 90.5t-90 217.5zM181 833q0 -91 64.5 -157t158.5 -66q93 0 158 66t65 157q0 96 -65 160.5t-158 64.5q-94 0 -158.5 -64.5t-64.5 -160.5z" />
<glyph unicode="&#x59c;" d="M97 833q0 129 90 219t217 90q130 0 219.5 -90t89.5 -219q0 -130 -89.5 -219t-219.5 -89q-127 0 -217 90.5t-90 217.5zM181 833q0 -91 64.5 -157t158.5 -66q93 0 158 66t65 157q0 96 -65 160.5t-158 64.5q-94 0 -158.5 -64.5t-64.5 -160.5z" />
<glyph unicode="&#x59d;" d="M97 833q0 129 90 219t217 90q130 0 219.5 -90t89.5 -219q0 -130 -89.5 -219t-219.5 -89q-127 0 -217 90.5t-90 217.5zM181 833q0 -91 64.5 -157t158.5 -66q93 0 158 66t65 157q0 96 -65 160.5t-158 64.5q-94 0 -158.5 -64.5t-64.5 -160.5z" />
<glyph unicode="&#x59e;" d="M97 833q0 129 90 219t217 90q130 0 219.5 -90t89.5 -219q0 -130 -89.5 -219t-219.5 -89q-127 0 -217 90.5t-90 217.5zM181 833q0 -91 64.5 -157t158.5 -66q93 0 158 66t65 157q0 96 -65 160.5t-158 64.5q-94 0 -158.5 -64.5t-64.5 -160.5z" />
<glyph unicode="&#x59f;" d="M97 833q0 129 90 219t217 90q130 0 219.5 -90t89.5 -219q0 -130 -89.5 -219t-219.5 -89q-127 0 -217 90.5t-90 217.5zM181 833q0 -91 64.5 -157t158.5 -66q93 0 158 66t65 157q0 96 -65 160.5t-158 64.5q-94 0 -158.5 -64.5t-64.5 -160.5z" />
<glyph unicode="&#x5a0;" d="M97 833q0 129 90 219t217 90q130 0 219.5 -90t89.5 -219q0 -130 -89.5 -219t-219.5 -89q-127 0 -217 90.5t-90 217.5zM181 833q0 -91 64.5 -157t158.5 -66q93 0 158 66t65 157q0 96 -65 160.5t-158 64.5q-94 0 -158.5 -64.5t-64.5 -160.5z" />
<glyph unicode="&#x5a1;" d="M97 833q0 129 90 219t217 90q130 0 219.5 -90t89.5 -219q0 -130 -89.5 -219t-219.5 -89q-127 0 -217 90.5t-90 217.5zM181 833q0 -91 64.5 -157t158.5 -66q93 0 158 66t65 157q0 96 -65 160.5t-158 64.5q-94 0 -158.5 -64.5t-64.5 -160.5z" />
<glyph unicode="&#x5a3;" d="M97 833q0 129 90 219t217 90q130 0 219.5 -90t89.5 -219q0 -130 -89.5 -219t-219.5 -89q-127 0 -217 90.5t-90 217.5zM181 833q0 -91 64.5 -157t158.5 -66q93 0 158 66t65 157q0 96 -65 160.5t-158 64.5q-94 0 -158.5 -64.5t-64.5 -160.5z" />
<glyph unicode="&#x5a4;" d="M97 833q0 129 90 219t217 90q130 0 219.5 -90t89.5 -219q0 -130 -89.5 -219t-219.5 -89q-127 0 -217 90.5t-90 217.5zM181 833q0 -91 64.5 -157t158.5 -66q93 0 158 66t65 157q0 96 -65 160.5t-158 64.5q-94 0 -158.5 -64.5t-64.5 -160.5z" />
<glyph unicode="&#x5a5;" d="M97 833q0 129 90 219t217 90q130 0 219.5 -90t89.5 -219q0 -130 -89.5 -219t-219.5 -89q-127 0 -217 90.5t-90 217.5zM181 833q0 -91 64.5 -157t158.5 -66q93 0 158 66t65 157q0 96 -65 160.5t-158 64.5q-94 0 -158.5 -64.5t-64.5 -160.5z" />
<glyph unicode="&#x5a6;" d="M97 833q0 129 90 219t217 90q130 0 219.5 -90t89.5 -219q0 -130 -89.5 -219t-219.5 -89q-127 0 -217 90.5t-90 217.5zM181 833q0 -91 64.5 -157t158.5 -66q93 0 158 66t65 157q0 96 -65 160.5t-158 64.5q-94 0 -158.5 -64.5t-64.5 -160.5z" />
<glyph unicode="&#x5a7;" d="M97 833q0 129 90 219t217 90q130 0 219.5 -90t89.5 -219q0 -130 -89.5 -219t-219.5 -89q-127 0 -217 90.5t-90 217.5zM181 833q0 -91 64.5 -157t158.5 -66q93 0 158 66t65 157q0 96 -65 160.5t-158 64.5q-94 0 -158.5 -64.5t-64.5 -160.5z" />
<glyph unicode="&#x5a8;" d="M97 833q0 129 90 219t217 90q130 0 219.5 -90t89.5 -219q0 -130 -89.5 -219t-219.5 -89q-127 0 -217 90.5t-90 217.5zM181 833q0 -91 64.5 -157t158.5 -66q93 0 158 66t65 157q0 96 -65 160.5t-158 64.5q-94 0 -158.5 -64.5t-64.5 -160.5z" />
<glyph unicode="&#x5a9;" d="M97 833q0 129 90 219t217 90q130 0 219.5 -90t89.5 -219q0 -130 -89.5 -219t-219.5 -89q-127 0 -217 90.5t-90 217.5zM181 833q0 -91 64.5 -157t158.5 -66q93 0 158 66t65 157q0 96 -65 160.5t-158 64.5q-94 0 -158.5 -64.5t-64.5 -160.5z" />
<glyph unicode="&#x5aa;" d="M97 833q0 129 90 219t217 90q130 0 219.5 -90t89.5 -219q0 -130 -89.5 -219t-219.5 -89q-127 0 -217 90.5t-90 217.5zM181 833q0 -91 64.5 -157t158.5 -66q93 0 158 66t65 157q0 96 -65 160.5t-158 64.5q-94 0 -158.5 -64.5t-64.5 -160.5z" />
<glyph unicode="&#x5ab;" d="M97 833q0 129 90 219t217 90q130 0 219.5 -90t89.5 -219q0 -130 -89.5 -219t-219.5 -89q-127 0 -217 90.5t-90 217.5zM181 833q0 -91 64.5 -157t158.5 -66q93 0 158 66t65 157q0 96 -65 160.5t-158 64.5q-94 0 -158.5 -64.5t-64.5 -160.5z" />
<glyph unicode="&#x5ac;" d="M97 833q0 129 90 219t217 90q130 0 219.5 -90t89.5 -219q0 -130 -89.5 -219t-219.5 -89q-127 0 -217 90.5t-90 217.5zM181 833q0 -91 64.5 -157t158.5 -66q93 0 158 66t65 157q0 96 -65 160.5t-158 64.5q-94 0 -158.5 -64.5t-64.5 -160.5z" />
<glyph unicode="&#x5ad;" d="M97 833q0 129 90 219t217 90q130 0 219.5 -90t89.5 -219q0 -130 -89.5 -219t-219.5 -89q-127 0 -217 90.5t-90 217.5zM181 833q0 -91 64.5 -157t158.5 -66q93 0 158 66t65 157q0 96 -65 160.5t-158 64.5q-94 0 -158.5 -64.5t-64.5 -160.5z" />
<glyph unicode="&#x5ae;" d="M97 833q0 129 90 219t217 90q130 0 219.5 -90t89.5 -219q0 -130 -89.5 -219t-219.5 -89q-127 0 -217 90.5t-90 217.5zM181 833q0 -91 64.5 -157t158.5 -66q93 0 158 66t65 157q0 96 -65 160.5t-158 64.5q-94 0 -158.5 -64.5t-64.5 -160.5z" />
<glyph unicode="&#x5af;" d="M97 833q0 129 90 219t217 90q130 0 219.5 -90t89.5 -219q0 -130 -89.5 -219t-219.5 -89q-127 0 -217 90.5t-90 217.5zM181 833q0 -91 64.5 -157t158.5 -66q93 0 158 66t65 157q0 96 -65 160.5t-158 64.5q-94 0 -158.5 -64.5t-64.5 -160.5z" />
<glyph unicode="&#x5b0;" horiz-adv-x="2" d="M-101 -284q0 41 32 69.5t71 28.5q44 0 72.5 -28.5t28.5 -69.5t-30 -71t-71 -30q-42 0 -72.5 30t-30.5 71zM-101 -599q0 41 32 69.5t71 28.5q44 0 72.5 -28.5t28.5 -69.5q0 -40 -30 -70.5t-71 -30.5q-42 0 -72.5 30.5t-30.5 70.5z" />
<glyph unicode="&#x5b1;" horiz-adv-x="2" d="M-362 -284q0 38 30 68t71 30q43 0 72 -28.5t29 -69.5t-30 -71t-71 -30q-39 0 -70 28.5t-31 72.5zM-213 -526q0 40 30 69t71 29t70.5 -29t29.5 -69q0 -41 -29.5 -71t-70.5 -30q-39 0 -70 28.5t-31 72.5zM-88 -284q0 38 32.5 68t69.5 30q43 0 72 -27.5t29 -70.5 q0 -41 -30 -71t-71 -30q-40 0 -71 30t-31 71zM197 -284q0 86 81 86q86 0 86 -86q0 -34 -26.5 -58t-59.5 -24q-81 0 -81 82zM197 -536q0 35 24 59t57 24q86 0 86 -83q0 -34 -25 -59t-61 -25q-81 0 -81 84z" />
<glyph unicode="&#x5b2;" horiz-adv-x="2" d="M-332 -243q0 35 30 35h352q32 0 32 -35v-78q0 -36 -32 -36h-352q-30 0 -30 36v78zM167 -284q0 86 82 86q87 0 87 -86q0 -34 -26.5 -58t-60.5 -24q-82 0 -82 82zM167 -536q0 83 82 83q87 0 87 -83q0 -34 -25.5 -59t-61.5 -25q-82 0 -82 84z" />
<glyph unicode="&#x5b3;" horiz-adv-x="2" d="M-332 -243q0 35 30 35h352q32 0 32 -35v-78q0 -36 -32 -36h-138q0 -50 24 -103l27 -59q9 -19 9 -41q0 -39 -28.5 -67.5t-69.5 -28.5t-70 28.5t-29 67.5q0 22 10 41l27 59q25 58 25 103h-139q-30 0 -30 36v78zM167 -284q0 86 82 86q39 0 63 -24t24 -62q0 -34 -26.5 -58 t-60.5 -24q-82 0 -82 82zM167 -536q0 83 82 83q87 0 87 -83q0 -34 -25.5 -59t-61.5 -25q-82 0 -82 84z" />
<glyph unicode="&#x5b4;" horiz-adv-x="2" d="M-105 -284q0 43 32.5 73t74.5 30q46 0 76 -30t30 -73q0 -41 -32.5 -73.5t-73.5 -32.5q-42 0 -74.5 32.5t-32.5 73.5z" />
<glyph unicode="&#x5b5;" horiz-adv-x="2" d="M-254 -284q0 41 30.5 69.5t70.5 28.5q100 0 100 -98q0 -41 -29.5 -71t-70.5 -30q-40 0 -70.5 30t-30.5 71zM55 -284q0 41 30 69.5t71 28.5q43 0 71.5 -28.5t28.5 -69.5t-29.5 -71t-70.5 -30t-71 30t-30 71z" />
<glyph unicode="&#x5b6;" horiz-adv-x="2" d="M-254 -284q0 41 30.5 69.5t70.5 28.5q100 0 100 -98q0 -41 -29.5 -71t-70.5 -30q-40 0 -70.5 30t-30.5 71zM-90 -548q0 40 30 69t69 29q44 0 72.5 -29t28.5 -69q0 -41 -30 -71t-71 -30q-39 0 -69 30t-30 71zM55 -284q0 41 30 69.5t71 28.5q43 0 71.5 -28.5t28.5 -69.5 t-29.5 -71t-70.5 -30t-71 30t-30 71z" />
<glyph unicode="&#x5b7;" horiz-adv-x="2" d="M-254 -243q0 35 32 35h448q30 0 30 -35v-78q0 -36 -30 -36h-448q-32 0 -32 36v78z" />
<glyph unicode="&#x5b8;" horiz-adv-x="2" d="M-254 -243q0 35 32 35h448q30 0 30 -35v-78q0 -36 -30 -36h-185q0 -55 21 -103l27 -59q9 -19 9 -41q0 -41 -28.5 -68.5t-67.5 -27.5t-68 28.5t-29 67.5q0 22 10 41l25 59q25 53 25 103h-187q-32 0 -32 36v78z" />
<glyph unicode="&#x5b9;" horiz-adv-x="2" d="M-101 1369q0 39 30.5 68.5t70.5 29.5q46 0 73.5 -27.5t27.5 -70.5q0 -41 -30 -71t-71 -30q-40 0 -70.5 30t-30.5 71z" />
<glyph unicode="&#x5bb;" horiz-adv-x="2" d="M-94 -284q0 41 30 69.5t71 28.5q101 0 101 -98q0 -41 -30 -71t-71 -30t-71 30t-30 71zM75 -488q0 41 30 69.5t69 28.5q44 0 72.5 -27.5t28.5 -70.5q0 -41 -30 -71t-71 -30q-39 0 -69 30t-30 71zM239 -689q0 37 30.5 67.5t69.5 30.5q101 0 101 -98q0 -41 -30 -71t-71 -30 q-39 0 -69.5 30t-30.5 71z" />
<glyph unicode="&#x5bc;" horiz-adv-x="2" d="M-101 535q0 37 32 67.5t69 30.5q43 0 72 -27.5t29 -70.5q0 -41 -30 -71t-71 -30q-40 0 -70.5 30t-30.5 71z" />
<glyph unicode="&#x5bd;" horiz-adv-x="2" d="M-70 -239q0 31 36 31h76q36 0 36 -31v-448q0 -31 -36 -31h-76q-36 0 -36 31v448z" />
<glyph unicode="&#x5be;" horiz-adv-x="608" d="M95 886v207q0 48 34 48h337q36 0 36 -48v-207q0 -47 -36 -47h-337q-34 0 -34 47z" />
<glyph unicode="&#x5bf;" horiz-adv-x="608" d="M95 886v207q0 48 34 48h337q36 0 36 -48v-207q0 -47 -36 -47h-337q-34 0 -34 47z" />
<glyph unicode="&#x5c0;" horiz-adv-x="535" d="M167 -335v1851q0 59 59 59h85q58 0 58 -68v-1842q0 -65 -60 -65h-83q-59 0 -59 65z" />
<glyph unicode="&#x5c1;" horiz-adv-x="2" d="M1128 1369q0 39 30.5 68.5t69.5 29.5q46 0 73.5 -27.5t27.5 -70.5q0 -41 -30 -71t-71 -30q-39 0 -69.5 30t-30.5 71z" />
<glyph unicode="&#x5c2;" horiz-adv-x="2" d="M110 1369q0 39 30.5 68.5t70.5 29.5q45 0 72.5 -27.5t27.5 -70.5q0 -41 -29.5 -71t-70.5 -30q-40 0 -70.5 30t-30.5 71z" />
<glyph unicode="&#x5c3;" horiz-adv-x="455" d="M47 180q0 98 27.5 129t125.5 31t130 -33q23 -31 23 -127q0 -93 -29.5 -125t-123.5 -32q-98 0 -125.5 32t-27.5 125zM47 805q0 98 27.5 129t125.5 31t130 -33q23 -31 23 -127q0 -94 -29.5 -125t-123.5 -31q-98 0 -125.5 31t-27.5 125z" />
<glyph unicode="&#x5c4;" horiz-adv-x="2" d="M-101 1369q0 39 30.5 68.5t70.5 29.5q46 0 73.5 -27.5t27.5 -70.5q0 -41 -30 -71t-71 -30q-40 0 -70.5 30t-30.5 71z" />
<glyph unicode="&#x5d0;" horiz-adv-x="1209" d="M30 55v12l55 249q38 173 124 262l116 117l-259 345q-22 28 -22 50q0 53 53 53h215q68 0 110 -60l298 -404l5 4q-15 79 -5 122l70 281q14 57 57 57h231q64 0 64 -41q0 -14 -5 -34l-45 -190q-39 -169 -149 -279l-91 -91l311 -410q15 -18 15 -43q0 -55 -45 -55h-259 q-61 0 -96 53l-324 472l-5 -6q17 -57 5 -107l-89 -355q-14 -57 -57 -57h-216q-62 0 -62 55z" />
<glyph unicode="&#x5d1;" horiz-adv-x="1102" d="M53 57v190q0 60 57 60h473v409q0 73 -27 96q-37 36 -151 36q-129 0 -268 -14q-57 -4 -57 48v170q0 48 44 64q98 36 360 36q225 0 330 -66q123 -80 123 -261v-523h53q59 0 59 -57v-165q0 -80 -66 -80h-873q-57 0 -57 57z" />
<glyph unicode="&#x5d2;" horiz-adv-x="842" d="M33 32l14 215q4 55 36 67q88 31 144 59q163 84 163 146v247q0 55 -27.5 70t-112.5 15q-69 0 -112 -7q-50 -7 -50 45v170q0 45 43 60q74 24 249 24q201 0 282.5 -81.5t81.5 -240.5v-766q0 -55 -46 -55h-198q-39 0 -46 50l-26 211q-2 27 -29 27q-21 0 -27.5 -6t-13.5 -40 l-23 -96q-18 -64 -51.5 -98t-115.5 -57q-55 -17 -80 -17q-22 0 -40 16.5t-15 41.5z" />
<glyph unicode="&#x5d3;" horiz-adv-x="1099" d="M37 896v190q0 57 58 57h889q53 0 53 -50v-183q0 -50 -46 -57l-101 -16v-773q0 -64 -57 -64h-240q-59 0 -59 64v773h-439q-58 0 -58 59z" />
<glyph unicode="&#x5d4;" horiz-adv-x="1205" d="M62 887v167q0 55 50 65q156 29 499 29q274 0 391 -96q107 -91 107 -297v-691q0 -64 -57 -64h-240q-60 0 -60 64v654q0 92 -89 116q-41 12 -165 12q-136 0 -379 -12q-57 -2 -57 53zM89 64v320q0 114 57 220q17 31 60 31h185q55 0 55 -52v-519q0 -64 -60 -64h-240 q-57 0 -57 64z" />
<glyph unicode="&#x5d5;" horiz-adv-x="572" d="M108 64v1022q0 57 57 57h242q57 0 57 -67v-1012q0 -64 -59 -64h-240q-57 0 -57 64z" />
<glyph unicode="&#x5d6;" horiz-adv-x="766" d="M42 896v190q0 57 57 57h547q57 0 57 -55v-160q0 -50 -48 -63l-30 -10q-73 -18 -101 -76q-38 -75 -38 -185q0 -45 25 -170l68 -347q5 -24 5 -31q0 -46 -66 -46h-236q-48 0 -61 60l-60 328q-11 48 -21 140q-4 172 131 309h-172q-57 0 -57 59z" />
<glyph unicode="&#x5d7;" horiz-adv-x="1262" d="M108 64v983q0 50 55 62q187 41 539 41q240 0 352 -92.5t112 -291.5v-702q0 -64 -57 -64h-240q-59 0 -59 64v654q0 85 -46 114q-33 16 -124 16q-96 0 -176 -2v-782q0 -64 -59 -64h-240q-57 0 -57 64z" />
<glyph unicode="&#x5d8;" horiz-adv-x="1250" d="M108 96v990q0 57 62 57h228q66 0 66 -60v-791q99 -11 144 -11q188 0 209 81q4 24 4 62v310q0 73 -25 93.5t-96 20.5q-17 0 -37.5 -2t-24.5 -2q-44 -3 -44 45v175q0 38 44.5 57.5t180.5 19.5q345 0 345 -345v-382q0 -327 -275 -398q-120 -30 -306 -30q-260 0 -427 43 q-48 12 -48 67z" />
<glyph unicode="&#x5d9;" horiz-adv-x="547" d="M95 532v554q0 57 57 57h242q58 0 58 -67v-544q0 -65 -60 -65h-240q-57 0 -57 65z" />
<glyph unicode="&#x5da;" horiz-adv-x="1022" d="M47 880v169q0 58 43 67q142 34 359 34q223 0 336 -69q142 -87 142 -292v-1078q0 -66 -61 -66h-237q-60 0 -60 66v984q0 103 -72 135q-38 16 -158 16q-45 0 -233 -16q-59 -5 -59 50z" />
<glyph unicode="&#x5db;" horiz-adv-x="1022" d="M62 80v172q0 50 57 50q32 0 111 -2h125q139 0 184.5 29.5t45.5 118.5v254q0 96 -89 123q-46 16 -167 16q-132 0 -212 -7q-55 -4 -55 51v169q0 55 48 65q128 29 338 29q266 0 371 -74q89 -65 118 -221q14 -84 14 -259q0 -381 -100 -489q-108 -114 -398 -114 q-197 0 -348 21q-43 4 -43 68z" />
<glyph unicode="&#x5dc;" horiz-adv-x="1102" d="M42 896v467q0 66 57 66h236q59 0 59 -66v-220h537q108 0 108 -96v-91q0 -43 -12 -76l-288 -820q-22 -60 -62 -60h-257q-44 0 -44 53q0 14 7 31l263 753h-547q-57 0 -57 59z" />
<glyph unicode="&#x5dd;" horiz-adv-x="1310" d="M60 860v192q0 55 55 62q235 31 551 31q295 0 415 -74q133 -84 133 -305v-702q0 -64 -57 -64h-944q-57 0 -57 64v757h-37q-59 -2 -59 39zM512 304h346v437q0 57 -40.5 78.5t-149.5 21.5q-57 0 -156 -9v-528z" />
<glyph unicode="&#x5de;" horiz-adv-x="1292" d="M28 954q0 36 19 50l187 141q28 21 57 21q28 0 44 -18l35 -46q29 -36 70 -91q64 77 98 101q48 31 127 31h187q350 0 350 -347v-492q0 -316 -371 -316q-121 0 -190 26q-43 18 -43 57v164q0 50 57 46h101q91 0 91 85v368q0 57 -14 80q-25 32 -89 32h-170q-63 0 -91 -46v-736 q0 -64 -61 -64h-238q-58 0 -58 64v695q0 39 -38 94l-39 55q-21 32 -21 46z" />
<glyph unicode="&#x5df;" horiz-adv-x="572" d="M108 -289v1375q0 57 57 57h242q57 0 57 -67v-1365q0 -66 -59 -66h-240q-57 0 -57 66z" />
<glyph unicode="&#x5e0;" horiz-adv-x="766" d="M60 57v188q0 59 57 59h199v467q0 77 -105 77q-39 0 -69 -4q-51 -10 -51 45v179q0 39 40.5 57t213.5 18q167 0 246 -72t79 -246v-745q0 -80 -73 -80h-480q-57 0 -57 57z" />
<glyph unicode="&#x5e1;" horiz-adv-x="1228" d="M74 567q0 313 72 432q101 163 469 163h3q365 0 465 -160q74 -120 74 -412q0 -324 -98 -458q-105 -148 -441 -148h-3q-162 0 -249 18q-138 34 -206 128q-86 124 -86 437zM436 457q0 -110 36 -143t141 -33h13q90 0 131 38t41 141v228q0 110 -33.5 144.5t-136.5 34.5h-27 q-105 0 -135 -30t-30 -140v-240z" />
<glyph unicode="&#x5e2;" horiz-adv-x="1161" d="M30 -7q0 34 21 46q106 52 261 148l3 12l-271 867q-2 10 -2 22q0 55 50 55h233q67 0 86 -64l139 -496q21 -78 -2 -254l9 -8q79 63 115 182q34 105 48 316l17 242q7 82 60 82h244q62 0 62 -62v-13l-21 -222q-27 -274 -101 -433t-232 -294q-178 -149 -544 -330 q-58 -28 -76 5l-82 162q-17 30 -17 37z" />
<glyph unicode="&#x5e3;" horiz-adv-x="1150" d="M85 522v527q0 51 55 63q161 38 410 38q331 0 417 -94.5t86 -286.5v-1058q0 -66 -57 -66h-240q-58 0 -58 66v1055q0 59 -45 78q-26 11 -94 11q-66 0 -121 -4v-128v-23q2 -7 25 -7h82q48 0 48 -48v-156q0 -57 -86 -57h-309q-60 0 -80 9q-33 16 -33 81z" />
<glyph unicode="&#x5e4;" horiz-adv-x="1173" d="M95 87v155q0 58 59 53q133 -10 350 -10q140 0 178 15q55 18 55 95v396q0 50 -48 69q-31 12 -115 12t-139 -5v-149v-23q3 -7 26 -7h80q48 0 48 -48v-137q0 -57 -87 -57h-295q-60 0 -78 9q-34 17 -34 82v512q0 51 55 63q160 38 409 38q355 0 441.5 -94.5t86.5 -286.5v-388 q0 -198 -112 -292q-123 -98 -391 -98q-290 0 -432 32q-57 16 -57 64z" />
<glyph unicode="&#x5e5;" horiz-adv-x="1127" d="M12 1083q0 60 52 60h228q46 0 72 -57l219 -441q7 4 37 100l77 321q19 77 67 77h223q74 0 74 -57q0 -15 -7 -44l-71 -263q-27 -98 -103 -173q-55 -55 -197 -151l345 -627q33 -60 -19 -87l-199 -96q-10 -4 -19 -4q-48 0 -73 50l-695 1340q-11 23 -11 52z" />
<glyph unicode="&#x5e6;" horiz-adv-x="1168" d="M35 1083q0 60 53 60h240q50 0 71 -57l105 -281q48 -132 94 -172q21 43 50 112l91 321q21 77 69 77h226q74 0 74 -57q0 -18 -7 -44l-89 -290q-28 -91 -83 -141q-80 -60 -159 -117l242 -204q39 -34 39 -89v-105q0 -96 -65 -96h-843q-65 0 -65 57v165q0 61 55 61h520 q16 0 0 17q-14 2 -36 9q-378 182 -494 510l-86 242q-2 10 -2 22z" />
<glyph unicode="&#x5e7;" horiz-adv-x="1248" d="M74 896v190q0 57 58 57h609q196 0 315 -99.5t119 -284.5q0 -119 -63 -263l-192 -432q-28 -64 -81 -64h-231q-48 0 -48 55q0 16 7 34l254 577q16 34 16 65q0 106 -108 106h-597q-58 0 -58 59zM110 -289v710q0 73 57 226q16 39 59 39h176q55 0 55 -51v-924q0 -66 -59 -66 h-231q-57 0 -57 66z" />
<glyph unicode="&#x5e8;" horiz-adv-x="1027" d="M53 880v169q0 58 43 67q142 34 359 34q224 0 336 -69q141 -87 141 -292v-725q0 -64 -60 -64h-237q-59 0 -59 64v631q0 103 -73 135q-39 16 -158 16q-45 0 -233 -16q-59 -5 -59 50z" />
<glyph unicode="&#x5e9;" horiz-adv-x="1532" d="M42 1068q-5 29 11.5 52t43.5 23h247q50 0 60 -60l75 -511l9 6q57 28 62 92l43 411q5 62 62 62h231q52 0 52 -46l-4 -29l-60 -364q-22 -146 -166 -217l-199 -101q15 -68 34 -89q23 -29 82 -29h190q55 0 85 10q66 19 86 124l127 686q10 55 63 55h254q57 0 45 -72l-125 -657 q-43 -224 -144 -320q-117 -108 -412 -108h-141q-281 0 -386 119q-81 96 -120 327z" />
<glyph unicode="&#x5ea;" horiz-adv-x="1324" d="M47 57v183q0 60 57 60h130v541l-77 -2q-58 -2 -58 53v160q0 55 48 62q223 31 581 31q270 0 380 -74q120 -81 120 -294v-713q0 -64 -58 -64h-234q-66 0 -66 64v688q0 58 -22 76t-106 18h-163v-752q0 -94 -75 -94h-400q-57 0 -57 57z" />
<glyph unicode="&#x5f0;" d="M97 833q0 129 90 219t217 90q130 0 219.5 -90t89.5 -219q0 -130 -89.5 -219t-219.5 -89q-127 0 -217 90.5t-90 217.5zM181 833q0 -91 64.5 -157t158.5 -66q93 0 158 66t65 157q0 96 -65 160.5t-158 64.5q-94 0 -158.5 -64.5t-64.5 -160.5z" />
<glyph unicode="&#x5f1;" d="M97 833q0 129 90 219t217 90q130 0 219.5 -90t89.5 -219q0 -130 -89.5 -219t-219.5 -89q-127 0 -217 90.5t-90 217.5zM181 833q0 -91 64.5 -157t158.5 -66q93 0 158 66t65 157q0 96 -65 160.5t-158 64.5q-94 0 -158.5 -64.5t-64.5 -160.5z" />
<glyph unicode="&#x5f2;" d="M97 833q0 129 90 219t217 90q130 0 219.5 -90t89.5 -219q0 -130 -89.5 -219t-219.5 -89q-127 0 -217 90.5t-90 217.5zM181 833q0 -91 64.5 -157t158.5 -66q93 0 158 66t65 157q0 96 -65 160.5t-158 64.5q-94 0 -158.5 -64.5t-64.5 -160.5z" />
<glyph unicode="&#x5f3;" horiz-adv-x="366" d="M19 764l91 501q12 55 70 55h103q28 0 45 -27.5t10 -58.5l-36 -151q-41 -168 -190 -328q-25 -28 -48 -28q-52 0 -45 37z" />
<glyph unicode="&#x5f4;" horiz-adv-x="720" d="M19 764l91 501q12 55 70 55h103q28 0 45 -27.5t10 -58.5l-36 -151q-41 -168 -190 -328q-25 -28 -48 -28q-52 0 -45 37zM338 764l91 501q12 55 69 55h103q30 0 46 -27.5t9 -58.5l-36 -151q-40 -168 -188 -328q-27 -28 -48 -28q-53 0 -46 37z" />
<glyph unicode="&#x2000;" horiz-adv-x="853" />
<glyph unicode="&#x2001;" horiz-adv-x="1706" />
<glyph unicode="&#x2002;" horiz-adv-x="853" />
<glyph unicode="&#x2003;" horiz-adv-x="1706" />
<glyph unicode="&#x2004;" horiz-adv-x="568" />
<glyph unicode="&#x2005;" horiz-adv-x="426" />
<glyph unicode="&#x2006;" horiz-adv-x="284" />
<glyph unicode="&#x2007;" horiz-adv-x="284" />
<glyph unicode="&#x2008;" horiz-adv-x="213" />
<glyph unicode="&#x2009;" horiz-adv-x="341" />
<glyph unicode="&#x200a;" horiz-adv-x="94" />
<glyph unicode="&#x200c;" d="M97 833q0 129 90 219t217 90q130 0 219.5 -90t89.5 -219q0 -130 -89.5 -219t-219.5 -89q-127 0 -217 90.5t-90 217.5zM181 833q0 -91 64.5 -157t158.5 -66q93 0 158 66t65 157q0 96 -65 160.5t-158 64.5q-94 0 -158.5 -64.5t-64.5 -160.5z" />
<glyph unicode="&#x2010;" horiz-adv-x="816" d="M95 472v184q0 44 52 44h518q55 0 55 -44v-184q0 -43 -55 -43h-518q-52 0 -52 43z" />
<glyph unicode="&#x2011;" horiz-adv-x="816" d="M95 472v184q0 44 52 44h518q55 0 55 -44v-184q0 -43 -55 -43h-518q-52 0 -52 43z" />
<glyph unicode="&#x2012;" horiz-adv-x="816" d="M95 472v184q0 44 52 44h518q55 0 55 -44v-184q0 -43 -55 -43h-518q-52 0 -52 43z" />
<glyph unicode="&#x2013;" horiz-adv-x="816" d="M95 472v184q0 44 52 44h518q55 0 55 -44v-184q0 -43 -55 -43h-518q-52 0 -52 43z" />
<glyph unicode="&#x2014;" horiz-adv-x="1119" d="M95 472v184q0 44 77 44h756q81 0 81 -44v-184q0 -43 -81 -43h-756q-77 0 -77 43z" />
<glyph unicode="&#x2018;" horiz-adv-x="366" d="M20 812l36 151q41 168 190 329q25 28 48 28q52 0 45 -38l-91 -500q-12 -55 -70 -55h-103q-28 0 -45 27.5t-10 57.5z" />
<glyph unicode="&#x2019;" horiz-adv-x="366" d="M19 764l91 501q12 55 70 55h103q28 0 45 -27.5t10 -58.5l-36 -151q-41 -168 -190 -328q-25 -28 -48 -28q-52 0 -45 37z" />
<glyph unicode="&#x201a;" horiz-adv-x="366" d="M19 -266l91 501q12 55 70 55h103q28 0 45 -27.5t10 -57.5l-36 -151q-41 -169 -190 -329q-25 -28 -48 -28q-52 0 -45 37z" />
<glyph unicode="&#x201c;" horiz-adv-x="720" d="M20 812l36 151q40 168 189 329q26 28 47 28q53 0 46 -38l-91 -500q-12 -55 -69 -55h-103q-29 0 -45.5 27.5t-9.5 57.5zM338 812l36 151q41 168 190 329q26 28 48 28q53 0 46 -38l-92 -500q-11 -55 -70 -55h-103q-28 0 -45 27.5t-10 57.5z" />
<glyph unicode="&#x201d;" horiz-adv-x="720" d="M19 764l91 501q12 55 70 55h103q28 0 45 -27.5t10 -58.5l-36 -151q-41 -168 -190 -328q-25 -28 -48 -28q-52 0 -45 37zM338 764l91 501q12 55 69 55h103q30 0 46 -27.5t9 -58.5l-36 -151q-40 -168 -188 -328q-27 -28 -48 -28q-53 0 -46 37z" />
<glyph unicode="&#x201e;" horiz-adv-x="720" d="M19 -266l91 501q12 55 70 55h103q28 0 45 -27.5t10 -57.5l-36 -151q-41 -169 -190 -329q-25 -28 -48 -28q-52 0 -45 37zM338 -266l91 501q12 55 69 55h103q30 0 46 -27.5t9 -57.5l-36 -151q-40 -169 -188 -329q-27 -28 -48 -28q-53 0 -46 37z" />
<glyph unicode="&#x2020;" horiz-adv-x="1022" d="M101 913q0 43 29.5 70.5t73.5 27.5q24 0 45 -5q12 -4 106 -45q59 -26 132 -29q0 62 -37 147q-55 128 -55 193q0 54 31 93t82 39q48 0 79 -41t31 -91q0 -55 -55 -184q-35 -86 -38 -156q69 5 131 29q99 38 118 44t43 6q105 0 105 -98q0 -44 -30 -70t-73 -26q-53 0 -165 45 q-64 30 -129 34q7 -162 101 -237q-63 -230 -82 -537q-9 -113 -19 -543h-38q-3 435 -32 702q-21 199 -69 378q91 79 101 237q-66 -7 -132 -36q-106 -43 -154 -43q-100 0 -100 96z" />
<glyph unicode="&#x2021;" horiz-adv-x="1022" d="M138 997q0 86 87 86q46 0 131 -34q77 -31 134 -36q-2 44 -9 66q-13 48 -46 126q-9 29 -22 62q-5 15 -5 43q0 114 101 114q98 0 98 -116q0 -48 -41 -142q-30 -71 -37 -153q67 5 141 37.5t124 32.5q89 0 89 -86q0 -89 -93 -89q-48 0 -125 32q-51 21 -67 25q-24 7 -69 11 q14 -104 96 -171q-96 -137 -96 -321q0 -175 96 -314q-82 -67 -96 -170q57 9 129 39q84 32 134 32q91 0 91 -85q0 -94 -91 -94q-41 0 -127 39q-69 28 -136 33q7 -44 33 -136q50 -111 50 -166q0 -43 -27.5 -74t-73.5 -31q-43 0 -71.5 32t-28.5 78q0 38 48 163q24 65 31 134 q-72 -5 -147.5 -38.5t-110.5 -33.5q-92 0 -92 89q0 90 96 90q39 0 111.5 -31t142.5 -33q-16 98 -98 163q98 130 98 326q0 204 -98 309q78 60 98 171q-59 -4 -146 -39q-69 -29 -117 -29q-89 0 -89 89z" />
<glyph unicode="&#x2022;" horiz-adv-x="716" d="M112 679q0 105 72 177t180 72q105 0 177 -72t72 -177q0 -107 -73 -179.5t-176 -72.5q-105 0 -178.5 72.5t-73.5 179.5z" />
<glyph unicode="&#x2026;" horiz-adv-x="1542" d="M12 156l202 203l203 -203l-203 -203zM529 156l202 203l203 -203l-203 -203zM1041 156l203 203l202 -203l-202 -203z" />
<glyph unicode="&#x202f;" horiz-adv-x="341" />
<glyph unicode="&#x2030;" horiz-adv-x="2396" d="M76 1196q0 268 170 375q79 51 165 51q203 0 295 -206q45 -99 45 -220q0 -168 -82 -288q-92 -137 -254 -137q-199 0 -294 201q-45 99 -45 224zM186 -64l1135 1686h106l-1138 -1686h-103zM262 1191q0 -361 151 -361t151 375q0 355 -158 355q-81 0 -117 -120 q-27 -86 -27 -249zM861 359q0 272 178 379q84 51 163 51q196 0 292 -206q46 -99 46 -219q0 -266 -176 -376q-81 -52 -165 -52q-158 0 -251 138q-87 123 -87 285zM1048 350q0 -350 149 -350q153 0 153 355q0 372 -153 372q-87 0 -124 -130q-25 -72 -25 -247zM1645 352 q0 288 172 389q84 48 161 48q91 0 172.5 -56.5t122.5 -142.5q42 -96 42 -217q0 -277 -167 -382q-84 -55 -167 -55q-94 0 -176 59q-73 53 -114 142q-46 98 -46 215zM1832 355q0 -355 151 -355q83 0 124 135q22 73 22 251q0 341 -151 341q-146 0 -146 -372z" />
<glyph unicode="&#x2039;" horiz-adv-x="796" d="M138 544l453 549h67l-286 -549l286 -553h-67z" />
<glyph unicode="&#x203a;" horiz-adv-x="796" d="M133 -9l285 551l-285 551h67l462 -551l-462 -551h-67z" />
<glyph unicode="&#x205f;" horiz-adv-x="426" />
<glyph unicode="&#x20ac;" horiz-adv-x="1198" d="M-26 673l27 91h87v20q0 35 2 78h-116l27 92h98q41 280 192 459q172 206 439 206q199 0 398 -103v-350h-46q-31 377 -352 377q-194 0 -302 -210q-77 -149 -100 -379h691l-26 -92h-674q-2 -50 -2 -98h645l-26 -91h-617q9 -223 85 -385q103 -219 294 -219q156 0 261 82 q65 48 161 182l36 -24q-101 -158 -183 -225q-133 -113 -322 -113q-271 0 -417 226q-121 182 -142 476h-118z" />
<glyph unicode="&#x2122;" horiz-adv-x="1" />
<glyph unicode="&#xe000;" horiz-adv-x="1058" d="M0 0v1059h1059v-1059h-1059z" />
<glyph unicode="&#xfb1d;" d="M97 833q0 129 90 219t217 90q130 0 219.5 -90t89.5 -219q0 -130 -89.5 -219t-219.5 -89q-127 0 -217 90.5t-90 217.5zM181 833q0 -91 64.5 -157t158.5 -66q93 0 158 66t65 157q0 96 -65 160.5t-158 64.5q-94 0 -158.5 -64.5t-64.5 -160.5z" />
<glyph unicode="&#xfb1e;" d="M97 833q0 129 90 219t217 90q130 0 219.5 -90t89.5 -219q0 -130 -89.5 -219t-219.5 -89q-127 0 -217 90.5t-90 217.5zM181 833q0 -91 64.5 -157t158.5 -66q93 0 158 66t65 157q0 96 -65 160.5t-158 64.5q-94 0 -158.5 -64.5t-64.5 -160.5z" />
<glyph unicode="&#xfb1f;" d="M97 833q0 129 90 219t217 90q130 0 219.5 -90t89.5 -219q0 -130 -89.5 -219t-219.5 -89q-127 0 -217 90.5t-90 217.5zM181 833q0 -91 64.5 -157t158.5 -66q93 0 158 66t65 157q0 96 -65 160.5t-158 64.5q-94 0 -158.5 -64.5t-64.5 -160.5z" />
<glyph unicode="&#xfb20;" d="M97 833q0 129 90 219t217 90q130 0 219.5 -90t89.5 -219q0 -130 -89.5 -219t-219.5 -89q-127 0 -217 90.5t-90 217.5zM181 833q0 -91 64.5 -157t158.5 -66q93 0 158 66t65 157q0 96 -65 160.5t-158 64.5q-94 0 -158.5 -64.5t-64.5 -160.5z" />
<glyph unicode="&#xfb21;" d="M97 833q0 129 90 219t217 90q130 0 219.5 -90t89.5 -219q0 -130 -89.5 -219t-219.5 -89q-127 0 -217 90.5t-90 217.5zM181 833q0 -91 64.5 -157t158.5 -66q93 0 158 66t65 157q0 96 -65 160.5t-158 64.5q-94 0 -158.5 -64.5t-64.5 -160.5z" />
<glyph unicode="&#xfb22;" d="M97 833q0 129 90 219t217 90q130 0 219.5 -90t89.5 -219q0 -130 -89.5 -219t-219.5 -89q-127 0 -217 90.5t-90 217.5zM181 833q0 -91 64.5 -157t158.5 -66q93 0 158 66t65 157q0 96 -65 160.5t-158 64.5q-94 0 -158.5 -64.5t-64.5 -160.5z" />
<glyph unicode="&#xfb23;" d="M97 833q0 129 90 219t217 90q130 0 219.5 -90t89.5 -219q0 -130 -89.5 -219t-219.5 -89q-127 0 -217 90.5t-90 217.5zM181 833q0 -91 64.5 -157t158.5 -66q93 0 158 66t65 157q0 96 -65 160.5t-158 64.5q-94 0 -158.5 -64.5t-64.5 -160.5z" />
<glyph unicode="&#xfb24;" d="M97 833q0 129 90 219t217 90q130 0 219.5 -90t89.5 -219q0 -130 -89.5 -219t-219.5 -89q-127 0 -217 90.5t-90 217.5zM181 833q0 -91 64.5 -157t158.5 -66q93 0 158 66t65 157q0 96 -65 160.5t-158 64.5q-94 0 -158.5 -64.5t-64.5 -160.5z" />
<glyph unicode="&#xfb25;" d="M97 833q0 129 90 219t217 90q130 0 219.5 -90t89.5 -219q0 -130 -89.5 -219t-219.5 -89q-127 0 -217 90.5t-90 217.5zM181 833q0 -91 64.5 -157t158.5 -66q93 0 158 66t65 157q0 96 -65 160.5t-158 64.5q-94 0 -158.5 -64.5t-64.5 -160.5z" />
<glyph unicode="&#xfb26;" d="M97 833q0 129 90 219t217 90q130 0 219.5 -90t89.5 -219q0 -130 -89.5 -219t-219.5 -89q-127 0 -217 90.5t-90 217.5zM181 833q0 -91 64.5 -157t158.5 -66q93 0 158 66t65 157q0 96 -65 160.5t-158 64.5q-94 0 -158.5 -64.5t-64.5 -160.5z" />
<glyph unicode="&#xfb27;" d="M97 833q0 129 90 219t217 90q130 0 219.5 -90t89.5 -219q0 -130 -89.5 -219t-219.5 -89q-127 0 -217 90.5t-90 217.5zM181 833q0 -91 64.5 -157t158.5 -66q93 0 158 66t65 157q0 96 -65 160.5t-158 64.5q-94 0 -158.5 -64.5t-64.5 -160.5z" />
<glyph unicode="&#xfb28;" d="M97 833q0 129 90 219t217 90q130 0 219.5 -90t89.5 -219q0 -130 -89.5 -219t-219.5 -89q-127 0 -217 90.5t-90 217.5zM181 833q0 -91 64.5 -157t158.5 -66q93 0 158 66t65 157q0 96 -65 160.5t-158 64.5q-94 0 -158.5 -64.5t-64.5 -160.5z" />
<glyph unicode="&#xfb29;" horiz-adv-x="816" d="M47 482v170q0 43 52 43h181v177q0 56 42 56h171q43 0 43 -56v-177h177q55 0 55 -43v-170q0 -43 -55 -43h-614q-52 0 -52 43z" />
<glyph unicode="&#xfb2a;" horiz-adv-x="1532" d="M42 1068q-5 29 11.5 52t43.5 23h247q50 0 60 -60l75 -511l9 6q57 28 62 92l43 411q5 62 62 62h231q52 0 52 -46l-4 -29l-60 -364q-22 -146 -166 -217l-199 -101q15 -68 34 -89q23 -29 82 -29h190q55 0 85 10q66 19 86 124l127 686q10 55 63 55h254q57 0 45 -72l-125 -657 q-43 -224 -144 -320q-117 -108 -412 -108h-141q-281 0 -386 119q-81 96 -120 327zM1127 1369q0 39 30.5 68.5t69.5 29.5q46 0 73.5 -27.5t27.5 -70.5q0 -41 -30 -71t-71 -30q-39 0 -69.5 30t-30.5 71z" />
<glyph unicode="&#xfb2b;" horiz-adv-x="1532" d="M42 1068q-5 29 11.5 52t43.5 23h247q50 0 60 -60l75 -511l9 6q57 28 62 92l43 411q5 62 62 62h231q52 0 52 -46l-4 -29l-60 -364q-22 -146 -166 -217l-199 -101q15 -68 34 -89q23 -29 82 -29h190q55 0 85 10q66 19 86 124l127 686q10 55 63 55h254q57 0 45 -72l-125 -657 q-43 -224 -144 -320q-117 -108 -412 -108h-141q-281 0 -386 119q-81 96 -120 327zM109 1369q0 39 30.5 68.5t69.5 29.5q46 0 73.5 -27.5t27.5 -70.5q0 -41 -30 -71t-71 -30q-39 0 -69.5 30t-30.5 71z" />
<glyph unicode="&#xfb2c;" horiz-adv-x="1532" d="M42 1068q-5 29 11.5 52t43.5 23h247q50 0 60 -60l75 -511l9 6q57 28 62 92l43 411q5 62 62 62h231q52 0 52 -46l-4 -29l-60 -364q-22 -146 -166 -217l-199 -101q15 -68 34 -89q23 -29 82 -29h190q55 0 85 10q66 19 86 124l127 686q10 55 63 55h254q57 0 45 -72l-125 -657 q-43 -224 -144 -320q-117 -108 -412 -108h-141q-281 0 -386 119q-81 96 -120 327zM882 688q0 27 23 48t50 21q31 0 51.5 -19.5t20.5 -49.5q0 -29 -21.5 -50t-50.5 -21q-30 0 -51.5 21t-21.5 50zM1127 1369q0 39 30.5 68.5t69.5 29.5q46 0 73.5 -27.5t27.5 -70.5 q0 -41 -30 -71t-71 -30q-39 0 -69.5 30t-30.5 71z" />
<glyph unicode="&#xfb2d;" horiz-adv-x="1532" d="M42 1068q-5 29 11.5 52t43.5 23h247q50 0 60 -60l75 -511l9 6q57 28 62 92l43 411q5 62 62 62h231q52 0 52 -46l-4 -29l-60 -364q-22 -146 -166 -217l-199 -101q15 -68 34 -89q23 -29 82 -29h190q55 0 85 10q66 19 86 124l127 686q10 55 63 55h254q57 0 45 -72l-125 -657 q-43 -224 -144 -320q-117 -108 -412 -108h-141q-281 0 -386 119q-81 96 -120 327zM109 1369q0 39 30.5 68.5t69.5 29.5q46 0 73.5 -27.5t27.5 -70.5q0 -41 -30 -71t-71 -30q-39 0 -69.5 30t-30.5 71zM882 688q0 27 23 48t50 21q31 0 51.5 -19.5t20.5 -49.5q0 -29 -21.5 -50 t-50.5 -21q-30 0 -51.5 21t-21.5 50z" />
<glyph unicode="&#xfb2e;" d="M97 833q0 129 90 219t217 90q130 0 219.5 -90t89.5 -219q0 -130 -89.5 -219t-219.5 -89q-127 0 -217 90.5t-90 217.5zM181 833q0 -91 64.5 -157t158.5 -66q93 0 158 66t65 157q0 96 -65 160.5t-158 64.5q-94 0 -158.5 -64.5t-64.5 -160.5z" />
<glyph unicode="&#xfb2f;" d="M97 833q0 129 90 219t217 90q130 0 219.5 -90t89.5 -219q0 -130 -89.5 -219t-219.5 -89q-127 0 -217 90.5t-90 217.5zM181 833q0 -91 64.5 -157t158.5 -66q93 0 158 66t65 157q0 96 -65 160.5t-158 64.5q-94 0 -158.5 -64.5t-64.5 -160.5z" />
<glyph unicode="&#xfb30;" d="M97 833q0 129 90 219t217 90q130 0 219.5 -90t89.5 -219q0 -130 -89.5 -219t-219.5 -89q-127 0 -217 90.5t-90 217.5zM181 833q0 -91 64.5 -157t158.5 -66q93 0 158 66t65 157q0 96 -65 160.5t-158 64.5q-94 0 -158.5 -64.5t-64.5 -160.5z" />
<glyph unicode="&#xfb31;" horiz-adv-x="1102" d="M53 57v190q0 60 57 60h473v409q0 73 -27 96q-37 36 -151 36q-129 0 -268 -14q-57 -4 -57 48v170q0 48 44 64q98 36 360 36q225 0 330 -66q123 -80 123 -261v-523h53q59 0 59 -57v-165q0 -80 -66 -80h-873q-57 0 -57 57zM216 571q0 27 23 48t50 21q32 0 52.5 -19.5 t20.5 -49.5q0 -29 -22 -50t-51 -21t-51 21t-22 50z" />
<glyph unicode="&#xfb32;" horiz-adv-x="842" d="M33 32l14 215q4 55 36 67q88 31 144 59q163 84 163 146v247q0 55 -27.5 70t-112.5 15q-69 0 -112 -7q-50 -7 -50 45v170q0 45 43 60q74 24 249 24q201 0 282.5 -81.5t81.5 -240.5v-766q0 -55 -46 -55h-198q-39 0 -46 50l-26 211q-2 27 -29 27q-21 0 -27.5 -6t-13.5 -40 l-23 -96q-18 -64 -51.5 -98t-115.5 -57q-55 -17 -80 -17q-22 0 -40 16.5t-15 41.5zM122 606q0 27 22.5 48t49.5 21q32 0 52.5 -19.5t20.5 -49.5q0 -29 -22 -50t-51 -21t-50.5 21t-21.5 50z" />
<glyph unicode="&#xfb33;" horiz-adv-x="1099" d="M37 896v190q0 57 58 57h889q53 0 53 -50v-183q0 -50 -46 -57l-101 -16v-773q0 -64 -57 -64h-240q-59 0 -59 64v773h-439q-58 0 -58 59zM204 442q0 27 22.5 48t49.5 21q32 0 52.5 -19t20.5 -50q0 -29 -22 -50t-51 -21t-50.5 21t-21.5 50z" />
<glyph unicode="&#xfb34;" horiz-adv-x="1205" d="M62 887v167q0 55 50 65q156 29 499 29q274 0 391 -96q107 -91 107 -297v-691q0 -64 -57 -64h-240q-60 0 -60 64v654q0 92 -89 116q-41 12 -165 12q-136 0 -379 -12q-57 -2 -57 53zM89 64v320q0 114 57 220q17 31 60 31h185q55 0 55 -52v-519q0 -64 -60 -64h-240 q-57 0 -57 64zM524 442q0 27 23 48t50 21q31 0 51.5 -19t20.5 -50q0 -29 -21.5 -50t-50.5 -21q-30 0 -51.5 21t-21.5 50z" />
<glyph unicode="&#xfb35;" horiz-adv-x="572" d="M-64 571q0 27 22.5 48t49.5 21q32 0 52.5 -19.5t20.5 -49.5q0 -29 -22 -50t-51 -21t-50.5 21t-21.5 50zM108 64v1022q0 57 57 57h242q57 0 57 -67v-1012q0 -64 -59 -64h-240q-57 0 -57 64z" />
<glyph unicode="&#xfb36;" horiz-adv-x="766" d="M-19 512q0 27 23 48t50 21q31 0 51.5 -19t20.5 -50q0 -29 -21.5 -50t-50.5 -21t-51 21t-22 50zM42 896v190q0 57 57 57h547q57 0 57 -55v-160q0 -50 -48 -63l-30 -10q-73 -18 -101 -76q-38 -75 -38 -185q0 -45 25 -170l68 -347q5 -24 5 -31q0 -46 -66 -46h-236 q-48 0 -61 60l-60 328q-11 48 -21 140q-4 172 131 309h-172q-57 0 -57 59z" />
<glyph unicode="&#xfb38;" horiz-adv-x="1250" d="M108 96v990q0 57 62 57h228q66 0 66 -60v-791q99 -11 144 -11q188 0 209 81q4 24 4 62v310q0 73 -25 93.5t-96 20.5q-17 0 -37.5 -2t-24.5 -2q-44 -3 -44 45v175q0 38 44.5 57.5t180.5 19.5q345 0 345 -345v-382q0 -327 -275 -398q-120 -30 -306 -30q-260 0 -427 43 q-48 12 -48 67zM567 571q0 27 23 48t50 21q32 0 52.5 -19.5t20.5 -49.5q0 -29 -22 -50t-51 -21t-51 21t-22 50z" />
<glyph unicode="&#xfb39;" horiz-adv-x="547" d="M-66 793q0 27 23 48t50 21q32 0 52.5 -19t20.5 -50q0 -29 -22 -50t-51 -21t-51 21t-22 50zM95 532v554q0 57 57 57h242q58 0 58 -67v-544q0 -65 -60 -65h-240q-57 0 -57 65z" />
<glyph unicode="&#xfb3a;" horiz-adv-x="1022" d="M47 880v169q0 58 43 67q142 34 359 34q223 0 336 -69q142 -87 142 -292v-1078q0 -66 -61 -66h-237q-60 0 -60 66v984q0 103 -72 135q-38 16 -158 16q-45 0 -233 -16q-59 -5 -59 50zM215 489q0 27 23 48t50 21q31 0 51.5 -19.5t20.5 -49.5q0 -29 -21.5 -50t-50.5 -21 t-51 21t-22 50z" />
<glyph unicode="&#xfb3b;" horiz-adv-x="1022" d="M62 80v172q0 50 57 50q32 0 111 -2h125q139 0 184.5 29.5t45.5 118.5v254q0 96 -89 123q-46 16 -167 16q-132 0 -212 -7q-55 -4 -55 51v169q0 55 48 65q128 29 338 29q266 0 371 -74q89 -65 118 -221q14 -84 14 -259q0 -381 -100 -489q-108 -114 -398 -114 q-197 0 -348 21q-43 4 -43 68zM216 571q0 27 23 48t50 21q32 0 52.5 -19.5t20.5 -49.5q0 -29 -22 -50t-51 -21t-51 21t-22 50z" />
<glyph unicode="&#xfb3c;" horiz-adv-x="1102" d="M42 896v467q0 66 57 66h236q59 0 59 -66v-220h537q108 0 108 -96v-91q0 -43 -12 -76l-288 -820q-22 -60 -62 -60h-257q-44 0 -44 53q0 14 7 31l263 753h-547q-57 0 -57 59zM215 571q0 27 23 48t50 21q31 0 51.5 -19.5t20.5 -49.5q0 -29 -21.5 -50t-50.5 -21t-51 21 t-22 50z" />
<glyph unicode="&#xfb3e;" horiz-adv-x="1292" d="M28 954q0 36 19 50l187 141q28 21 57 21q28 0 44 -18l35 -46q29 -36 70 -91q64 77 98 101q48 31 127 31h187q350 0 350 -347v-492q0 -316 -371 -316q-121 0 -190 26q-43 18 -43 57v164q0 50 57 46h101q91 0 91 85v368q0 57 -14 80q-25 32 -89 32h-170q-63 0 -91 -46v-736 q0 -64 -61 -64h-238q-58 0 -58 64v695q0 39 -38 94l-39 55q-21 32 -21 46zM590 559q0 27 22.5 48t49.5 21q32 0 52.5 -19t20.5 -50q0 -29 -22 -50t-51 -21t-50.5 21t-21.5 50z" />
<glyph unicode="&#xfb40;" horiz-adv-x="766" d="M60 57v188q0 59 57 59h199v467q0 77 -105 77q-39 0 -69 -4q-51 -10 -51 45v179q0 39 40.5 57t213.5 18q167 0 246 -72t79 -246v-745q0 -80 -73 -80h-480q-57 0 -57 57zM111 571q0 27 23 48t50 21q31 0 51.5 -19.5t20.5 -49.5q0 -29 -21.5 -50t-50.5 -21q-30 0 -51.5 21 t-21.5 50z" />
<glyph unicode="&#xfb41;" horiz-adv-x="1228" d="M74 567q0 313 72 432q101 163 469 163h3q365 0 465 -160q74 -120 74 -412q0 -324 -98 -458q-105 -148 -441 -148h-3q-162 0 -249 18q-138 34 -206 128q-86 124 -86 437zM436 457q0 -110 36 -143t141 -33h13q90 0 131 38t41 141v228q0 110 -33.5 144.5t-136.5 34.5h-27 q-105 0 -135 -30t-30 -140v-240zM544 571q0 27 23 48t50 21q31 0 51.5 -19.5t20.5 -49.5q0 -29 -21.5 -50t-50.5 -21q-30 0 -51.5 21t-21.5 50z" />
<glyph unicode="&#xfb43;" horiz-adv-x="1150" d="M85 522v527q0 51 55 63q161 38 410 38q331 0 417 -94.5t86 -286.5v-1058q0 -66 -57 -66h-240q-58 0 -58 66v1055q0 59 -45 78q-26 11 -94 11q-66 0 -121 -4v-128v-23q2 -7 25 -7h82q48 0 48 -48v-156q0 -57 -86 -57h-309q-60 0 -80 9q-33 16 -33 81zM519 337q0 27 23 48 t50 21q32 0 52.5 -19.5t20.5 -49.5q0 -29 -22 -50t-51 -21t-51 21t-22 50z" />
<glyph unicode="&#xfb44;" horiz-adv-x="1173" d="M95 87v155q0 58 59 53q133 -10 350 -10q140 0 178 15q55 18 55 95v396q0 50 -48 69q-31 12 -115 12t-139 -5v-149v-23q3 -7 26 -7h80q48 0 48 -48v-137q0 -57 -87 -57h-295q-60 0 -78 9q-34 17 -34 82v512q0 51 55 63q160 38 409 38q355 0 441.5 -94.5t86.5 -286.5v-388 q0 -198 -112 -292q-123 -98 -391 -98q-290 0 -432 32q-57 16 -57 64zM555 384q0 27 22.5 48t49.5 21q32 0 52.5 -19.5t20.5 -49.5q0 -29 -22 -50.5t-51 -21.5t-50.5 21.5t-21.5 50.5z" />
<glyph unicode="&#xfb46;" horiz-adv-x="1168" d="M35 1083q0 60 53 60h240q50 0 71 -57l105 -281q48 -132 94 -172q21 43 50 112l91 321q21 77 69 77h226q74 0 74 -57q0 -18 -7 -44l-89 -290q-28 -91 -83 -141q-80 -60 -159 -117l242 -204q39 -34 39 -89v-105q0 -96 -65 -96h-843q-65 0 -65 57v165q0 61 55 61h520 q16 0 0 17q-14 2 -36 9q-378 182 -494 510l-86 242q-2 10 -2 22zM110 536q0 27 23 48t50 21q31 0 51.5 -19.5t20.5 -49.5q0 -29 -21.5 -50.5t-50.5 -21.5q-30 0 -51.5 21.5t-21.5 50.5z" />
<glyph unicode="&#xfb47;" horiz-adv-x="1248" d="M74 896v190q0 57 58 57h609q196 0 315 -99.5t119 -284.5q0 -119 -63 -263l-192 -432q-28 -64 -81 -64h-231q-48 0 -48 55q0 16 7 34l254 577q16 34 16 65q0 106 -108 106h-597q-58 0 -58 59zM110 -289v710q0 73 57 226q16 39 59 39h176q55 0 55 -51v-924q0 -66 -59 -66 h-231q-57 0 -57 66zM567 501q0 27 23 48t50 21q32 0 52.5 -19.5t20.5 -49.5q0 -29 -22 -50.5t-51 -21.5t-51 21.5t-22 50.5z" />
<glyph unicode="&#xfb48;" horiz-adv-x="1027" d="M53 880v169q0 58 43 67q142 34 359 34q224 0 336 -69q141 -87 141 -292v-725q0 -64 -60 -64h-237q-59 0 -59 64v631q0 103 -73 135q-39 16 -158 16q-45 0 -233 -16q-59 -5 -59 50zM240 442q0 27 22.5 48t49.5 21q32 0 52.5 -19t20.5 -50q0 -29 -21.5 -50t-51.5 -21 q-29 0 -50.5 21t-21.5 50z" />
<glyph unicode="&#xfb49;" horiz-adv-x="1532" d="M42 1068q-5 29 11.5 52t43.5 23h247q50 0 60 -60l75 -511l9 6q57 28 62 92l43 411q5 62 62 62h231q52 0 52 -46l-4 -29l-60 -364q-22 -146 -166 -217l-199 -101q15 -68 34 -89q23 -29 82 -29h190q55 0 85 10q66 19 86 124l127 686q10 55 63 55h254q57 0 45 -72l-125 -657 q-43 -224 -144 -320q-117 -108 -412 -108h-141q-281 0 -386 119q-81 96 -120 327zM882 688q0 27 23 48t50 21q31 0 51.5 -19.5t20.5 -49.5q0 -29 -21.5 -50t-50.5 -21q-30 0 -51.5 21t-21.5 50z" />
<glyph unicode="&#xfb4a;" horiz-adv-x="1324" d="M47 57v183q0 60 57 60h130v541l-77 -2q-58 -2 -58 53v160q0 55 48 62q223 31 581 31q270 0 380 -74q120 -81 120 -294v-713q0 -64 -58 -64h-234q-66 0 -66 64v688q0 58 -22 76t-106 18h-163v-752q0 -94 -75 -94h-400q-57 0 -57 57zM648 442q0 27 23 48t50 21 q31 0 51.5 -19t20.5 -50q0 -29 -21.5 -50t-50.5 -21q-30 0 -51.5 21t-21.5 50z" />
<glyph unicode="&#xfb4b;" horiz-adv-x="572" d="M108 64v1022q0 57 57 57h242q57 0 57 -67v-1012q0 -64 -59 -64h-240q-57 0 -57 64zM180 1369q0 39 30.5 68.5t70.5 29.5q45 0 72.5 -27.5t27.5 -70.5q0 -41 -29.5 -71t-70.5 -30q-40 0 -70.5 30t-30.5 71z" />
<glyph unicode="&#xfb4c;" d="M97 833q0 129 90 219t217 90q130 0 219.5 -90t89.5 -219q0 -130 -89.5 -219t-219.5 -89q-127 0 -217 90.5t-90 217.5zM181 833q0 -91 64.5 -157t158.5 -66q93 0 158 66t65 157q0 96 -65 160.5t-158 64.5q-94 0 -158.5 -64.5t-64.5 -160.5z" />
</font>
</defs>
</svg>
