<?xml version="1.0" standalone="no"?> <!DOCTYPE svg PUBLIC "-//W3C//DTD SVG 1.0//EN" "http://www.w3.org/TR/2001/REC-SVG-20010904/DTD/svg10.dtd" > <svg xmlns="http://www.w3.org/2000/svg" width="100%" height="100%">
<defs >
<font id="reformabold0" horiz-adv-x="799" ><font-face
    font-family="Reforma"
    units-per-em="2048"
    panose-1="0 0 0 0 0 0 0 0 0 0"
    ascent="1505"
    descent="-510"
    alphabetic="0" />
<missing-glyph horiz-adv-x="1024" d="M128 0V1505H896V0H128ZM256 128H768V1377H256V128Z" />
<glyph unicode=" " glyph-name="space" horiz-adv-x="375" />
<glyph unicode="!" glyph-name="exclam" horiz-adv-x="643" d="M500 1108L397 412H193L92 1108Q86 1150 115 1178Q163 1223 301 1223Q517 1223 500 1108ZM451 0H141V309H451V0Z" />
<glyph unicode="&quot;" glyph-name="quotedbl" horiz-adv-x="942" d="M442 1247Q442 1110 401 956T305 731H68Q152 934 152 1247H442ZM850 1247Q850 1110 809 956T713 731H475Q559 934 559 1247H850Z" />
<glyph unicode="#" glyph-name="numbersign" horiz-adv-x="1112" d="M1040 846L1009 674H849L817 493H981L957 330H793L755 139H564L600 330H403L367 139H186L222 330H72L93 493H247L280 674H124L153 846H307L344 1047H521L488 846H685L724 1047H913L878 846H1040ZM660
674H463L430 493H628L660 674Z" />
<glyph unicode="$" glyph-name="dollar" horiz-adv-x="1137" d="M1034 311Q1034 178 932 89Q820 -8 625 -8V-147H504V-4Q450 -4 347 24Q217 59 160 109V393Q225 330 329 281T504 231V438Q133 508 133 758Q133 880 218 961Q317 1055 504 1055V1200H625V1055Q690
1055 772 1027Q866 995 928 942V688Q883 734 790 776Q693 819 625 819V637Q807 604 920 515T1034 311ZM504 668V825Q397 825 397 750Q397 699 504 668ZM727 315Q727 390 625 410V231Q727 231 727 315Z" />
<glyph unicode="%" glyph-name="percent" horiz-adv-x="1352" d="M1239 262Q1239 -27 987 -27Q735 -27 735 262Q735 409 790 477Q849 551 987 551Q1125 551 1185 477Q1239 409 1239 262ZM1159 1047L453 0H184L893 1047H1159ZM616 784Q616 496 365 496Q113 496
113 784Q113 932 167 999Q227 1073 365 1073Q503 1073 562 999Q616 932 616 784ZM1040 264Q1040 330 1033 352Q1022 385 987 385Q952 385 941 352Q934 330 934 264Q934 198 941 176Q952 145 987 145Q1022 145 1033 176Q1040 198 1040 264ZM418 786Q418 852 410
874Q400 907 365 907Q330 907 319 874Q311 852 311 786Q311 720 319 699Q329 668 365 668Q400 668 410 699Q418 720 418 786Z" />
<glyph unicode="&amp;" glyph-name="ampersand" horiz-adv-x="1580" d="M1436 147Q1436 83 1395 42T1293 0H497V547H730V232H1174Q1203 232 1203 264V904H1436V147ZM1083 358H850V641Q850 672 821 672H377V0H143V904H940Q1001 904 1042 863T1083 757V358Z" />
<glyph unicode="&apos;" glyph-name="quotesingle" horiz-adv-x="535" d="M442 1253Q442 1116 401 962T305 737H68Q152 940 152 1253H442Z" />
<glyph unicode="(" glyph-name="parenleft" horiz-adv-x="760" d="M739 -336H401Q280 -217 195 8Q102 255 102 516Q102 773 194 1033Q282 1283 401 1393H739Q617 1266 531 1020Q440 763 440 516Q440 271 528 26Q614 -212 739 -336Z" />
<glyph unicode=")" glyph-name="parenright" horiz-adv-x="760" d="M657 516Q657 255 565 8Q480 -217 358 -336H20Q146 -212 231 26Q319 271 319 516Q319 763 229 1020Q142 1266 20 1393H358Q477 1283 566 1033Q657 773 657 516Z" />
<glyph unicode="*" glyph-name="asterisk" horiz-adv-x="1006" d="M894 811L800 642L559 829L601 520H408L455 825L209 632L113 799L403 913L113 1024L206 1192L455 1002L408 1306H601L559 1002L794 1192L890 1025L615 916L894 811Z" />
<glyph unicode="+" glyph-name="plus" horiz-adv-x="862" d="M791 410H544V164H318V410H72V635H318V883H544V635H791V410Z" />
<glyph unicode="," glyph-name="comma" horiz-adv-x="498" d="M416 309Q416 172 375 18T279 -207H41Q125 -4 125 309H416Z" />
<glyph unicode="-" glyph-name="hyphen" horiz-adv-x="862" d="M729 389H133V655H729V389Z" />
<glyph unicode="." glyph-name="period" horiz-adv-x="432" d="M350 0H61V289H350V0Z" />
<glyph unicode="/" glyph-name="slash" horiz-adv-x="647" d="M625 1283L268 -173H23L379 1283H625Z" />
<glyph unicode="0" glyph-name="zero" horiz-adv-x="1020" d="M938 524Q938 -20 508 -20Q295 -20 193 101Q82 232 82 524Q82 825 185 952Q284 1073 510 1073Q731 1073 831 953Q938 824 938 524ZM623 524Q623 669 597 731T510 793Q397 793 397 524Q397 260 508
260Q623 260 623 524Z" />
<glyph unicode="1" glyph-name="one" horiz-adv-x="1020" d="M825 0H498V676Q449 577 358 488Q264 395 162 350V672Q262 721 379 831T563 1047H825V0Z" />
<glyph unicode="2" glyph-name="two" horiz-adv-x="1020" d="M928 721Q928 561 768 414L633 289H901V0H86V55L528 547Q575 599 575 655Q575 768 438 768Q265 768 123 604V930Q231 1073 489 1073Q928 1073 928 721Z" />
<glyph unicode="3" glyph-name="three" horiz-adv-x="1020" d="M690 532Q897 597 897 782Q897 1073 489 1073Q230 1073 131 1010V705Q161 730 234 755Q323 786 406 786Q545 786 545 709Q545 641 414 641H330V422H414Q565 422 565 342Q565 258 385 258Q295 258
205 295Q129 326 102 358V53Q215 -29 489 -29Q688 -29 813 56T938 283Q938 389 856 457Q791 512 690 532Z" />
<glyph unicode="4" glyph-name="four" horiz-adv-x="1020" d="M961 244H834V0H504V244H59V479L553 1047H834V514H961V244ZM524 514V776L303 514H524Z" />
<glyph unicode="5" glyph-name="five" horiz-adv-x="1020" d="M358 494Q236 494 123 455L217 1047H862V756H486L467 666Q473 666 493 671Q509 676 528 676Q706 676 812 597Q932 507 932 332Q932 183 815 80Q692 -29 498 -29Q228 -29 102 53V358Q129 326 205 295Q295
258 385 258Q484 258 537 298Q580 330 580 373Q580 494 358 494Z" />
<glyph unicode="6" glyph-name="six" horiz-adv-x="1020" d="M932 346Q932 189 835 89Q727 -25 528 -25Q90 -25 90 408Q90 559 194 743Q301 931 459 1047H856Q666 913 514 664Q540 678 573 678Q735 678 830 595Q932 507 932 346ZM612 348Q612 458 509 458Q401
458 401 348Q401 243 509 243Q612 243 612 348Z" />
<glyph unicode="7" glyph-name="seven" horiz-adv-x="1020" d="M942 834L553 0H205L575 737H96V1047H942V834Z" />
<glyph unicode="8" glyph-name="eight" horiz-adv-x="1020" d="M936 285Q936 116 825 40Q723 -29 510 -29Q290 -29 192 39Q86 112 86 285Q86 386 151 455Q211 518 303 532Q111 562 111 780Q111 1065 510 1065Q909 1065 909 780Q909 570 717 532Q811 518 870 458Q936
391 936 285ZM614 726Q614 781 579 800Q556 813 510 813Q407 813 407 726Q407 680 427 660Q453 635 510 635Q614 635 614 726ZM628 349Q628 399 597 426T510 454Q392 454 392 349Q392 298 418 271T510 244Q571 244 599 271T628 349Z" />
<glyph unicode="9" glyph-name="nine" horiz-adv-x="1020" d="M90 700Q90 862 183 958Q292 1071 514 1071Q932 1071 932 659Q932 511 822 315T563 0H166Q368 142 510 375Q479 360 451 360Q286 360 193 441Q90 529 90 700ZM420 684Q420 575 514 575Q612 575 612
684Q612 803 514 803Q420 803 420 684Z" />
<glyph unicode=":" glyph-name="colon" horiz-adv-x="514" d="M391 586H102V874H391V586ZM391 0H102V289H391V0Z" />
<glyph unicode=";" glyph-name="semicolon" horiz-adv-x="553" d="M432 586H143V874H432V586ZM436 309Q436 172 395 18T299 -207H61Q145 -4 145 309H436Z" />
<glyph unicode="&lt;" glyph-name="less" horiz-adv-x="862" d="M770 74L92 406V635L770 961V686L348 518L770 352V74Z" />
<glyph unicode="=" glyph-name="equal" horiz-adv-x="862" d="M770 621H92V866H770V621ZM770 176H92V422H770V176Z" />
<glyph unicode="&gt;" glyph-name="greater" horiz-adv-x="862" d="M770 406L92 74V352L514 518L92 686V961L770 635V406Z" />
<glyph unicode="?" glyph-name="question" horiz-adv-x="975" d="M698 612Q626 552 609 531Q569 480 569 412H258Q256 421 256 471Q256 615 416 723Q498 779 498 842Q498 926 360 926Q219 926 92 795V1120Q191 1223 436 1223Q613 1223 723 1142Q842 1056 842 903Q842
732 698 612ZM569 0H260V309H569V0Z" />
<glyph unicode="@" glyph-name="at" horiz-adv-x="1886" d="M1844 156Q1750 -132 1514 -296Q1283 -458 977 -458Q736 -458 537 -347Q332 -233 219 -27T105 428Q105 692 227 917Q352 1149 576 1277T1051 1406Q1253 1406 1413 1327Q1589 1240 1677 1073T1765 721Q1765
552 1699 391Q1629 218 1506 119Q1377 15 1213 15Q1060 15 1032 136Q1048 200 1088 240Q842 14 684 14Q599 14 548 91Q503 158 503 247Q503 403 607 592Q693 748 824 888Q931 961 1001 961Q1031 961 1054 948Q1194 948 1256 864L1264 960L1400 936L1299 543Q1227
263 1227 205Q1227 186 1232 176Q1226 156 1226 143Q1226 115 1251 115Q1268 115 1296 128Q1316 119 1336 119Q1410 119 1488 240Q1580 280 1632 397Q1705 561 1705 739Q1672 880 1600 1048Q1509 1182 1355 1260Q1205 1336 1040 1336Q808 1272 648 1176Q425 1100
384 904Q227 688 227 493Q227 458 232 424Q224 184 336 16Q397 -201 608 -240Q748 -324 968 -352Q1023 -359 1069 -359Q1300 -359 1464 -208Q1675 -103 1720 192L1844 156ZM1182 773Q1182 833 1150 873Q1133 895 1106 895Q1078 895 1040 872Q960 880 904 736Q793
723 712 525Q653 380 653 293Q672 264 683 198Q712 222 732 222Q755 222 768 192Q880 248 1016 384Q1056 472 1136 528Q1182 674 1182 773Z" />
<glyph unicode="A" glyph-name="A" horiz-adv-x="1479" d="M1456 0H921L960 32Q1032 64 1059 120Q1059 164 1019 259L937 454H412L320 240Q286 161 286 122Q286 48 400 40L443 0H16V37Q101 52 112 104Q176 123 239 271L716 1387L760 1360L1223 259Q1271 145 1328
120Q1359 43 1456 37V0ZM872 544L696 1072L443 528L872 544Z" />
<glyph unicode="B" glyph-name="B" horiz-adv-x="1366" d="M1254 371Q1254 257 1189 170T1015 43Q890 -3 674 0L96 8L80 64L85 37Q171 37 207 91Q216 144 230 240V1116Q230 1242 201 1275Q162 1319 85 1319L128 1312L80 1352L620 1356Q958 1359 1100 1217Q1191
1126 1191 994Q1191 771 946 692Q1087 662 1157 596Q1254 504 1254 371ZM982 1002Q982 1147 859 1224Q755 1289 602 1289Q502 1289 422 1267V746Q488 744 600 776Q668 765 724 765Q886 765 943 860Q982 925 982 1002ZM1022 354Q1022 542 839 621Q742 663 599 663Q471
663 422 654L400 160Q538 71 651 71Q802 71 903 135Q1022 211 1022 354Z" />
<glyph unicode="C" glyph-name="C" horiz-adv-x="1366" d="M1336 320Q1098 -31 734 -31Q397 -31 212 219Q74 405 74 657Q74 856 160 1022Q250 1197 416 1294Q575 1387 764 1387Q912 1387 1054 1315Q1097 1293 1114 1293Q1137 1298 1137 1324Q1137 1351 1112 1400L1233
1387L1264 926L1200 928Q1116 1315 780 1315Q485 1315 365 1028Q302 877 302 655Q302 273 539 129Q627 102 753 102Q783 102 816 104Q871 86 922 86Q1004 86 1073 134Q1152 248 1264 338L1336 320Z" />
<glyph unicode="D" glyph-name="D" horiz-adv-x="1479" d="M1401 685Q1401 401 1229 212Q1031 -6 641 0L104 8L88 0L86 37Q172 37 208 92Q230 125 230 240V1116Q230 1243 128 1256Q139 1276 139 1287Q139 1302 120 1302Q108 1302 88 1296V1296L64 1376L587 1356Q883
1345 994 1307Q1192 1240 1300 1065Q1401 902 1401 685ZM1173 675Q1173 942 1024 1088Q860 1248 632 1248Q603 1251 569 1251Q501 1251 416 1240L422 98Q465 100 640 96Q900 90 1041 256Q1173 410 1173 675Z" />
<glyph unicode="E" glyph-name="E" horiz-adv-x="1251" d="M1192 304L1096 -16H96L80 64L82 21Q129 21 168 104Q186 88 199 88Q233 88 232 264L228 1104Q200 1223 200 1253Q200 1261 202 1263Q167 1303 82 1303L72 1312V1352L1079 1340L1094 1043L1024 1048Q1008
1136 992 1176Q960 1215 784 1264H408L432 776L718 730Q910 730 910 834Q910 849 904 864L976 896L1008 536L920 504Q917 555 903 582Q864 658 747 658Q730 658 718 657L424 632L420 210Q419 136 421 133Q458 108 480 96Q491 90 506 90Q530 90 568 104H752Q808
112 846 112Q884 112 904 104Q976 128 1029 137Q1072 200 1096 320L1192 304Z" />
<glyph unicode="F" glyph-name="F" horiz-adv-x="1139" d="M1055 1058L976 1056Q952 1200 856 1248Q824 1232 704 1232H416L432 816L666 749Q736 784 799 796Q831 835 843 935H880V476H843Q841 609 769 648Q736 666 666 666L440 624L419 240Q438 188 438 147Q438
124 432 104Q436 93 450 93Q469 93 504 112Q568 72 566 37H615V0L32 8L72 64L81 37Q136 88 184 88Q184 152 227 240V1116Q227 1219 214 1252Q187 1319 81 1319L72 1296L64 1360L1024 1352L1055 1058Z" />
<glyph unicode="G" glyph-name="G" horiz-adv-x="1479" d="M1392 680L1417 694Q1365 628 1340 628Q1326 628 1320 648Q1303 624 1303 574Q1303 538 1312 488L1208 104Q1096 -88 792 -112Q356 -80 184 200Q74 379 64 649Q56 860 150 992Q314 1392 654 1392Q715
1392 782 1379Q913 1379 1088 1314Q1145 1293 1163 1293Q1192 1293 1192 1318Q1192 1332 1184 1352L1264 1360L1284 951L1200 960Q1196 1111 1112 1192Q1016 1260 892 1260Q840 1260 784 1248Q716 1274 657 1274Q496 1274 408 1080Q294 932 294 692Q294 516 358
362Q472 240 568 176L792 120Q936 112 1016 184L1095 496Q1095 572 1089 599Q1048 616 992 640Q993 648 993 655Q993 696 960 704L992 784L1440 776L1392 680Z" />
<glyph unicode="H" glyph-name="H" horiz-adv-x="1479" d="M1429 0H872L849 37L896 40Q980 37 1018 86Q1043 118 1043 240V653H413V240Q413 137 448 104Q454 68 509 68Q528 68 552 72L608 37V-8L27 0V37L48 80Q75 72 94 72Q133 72 144 104Q200 152 216 264L221
1115Q222 1226 208 1252Q160 1256 160 1272Q80 1272 75 1319L32 1264V1368L608 1356V1319H559Q506 1319 473 1291Q451 1272 417 1216Q413 1193 413 1115L456 776H1032L1043 1115Q1046 1211 1030 1252Q968 1264 897 1319H849V1356H1429V1319H1381Q1299 1319 1240
1200Q1235 1195 1264 1104L1235 240Q1232 141 1248 120Q1298 92 1298 74Q1298 67 1289 61Q1332 37 1381 37H1429V0Z" />
<glyph unicode="I" glyph-name="I" horiz-adv-x="682" d="M624 0L40 4L43 37H91Q175 37 184 104Q224 148 237 240V1116Q237 1219 224 1252Q214 1278 156 1280Q129 1301 88 1312L44 1324V1372L628 1380L624 1319H575Q516 1284 488 1232Q440 1208 429 1116L448 248Q471
190 471 144Q471 127 468 112Q492 64 575 37L616 80L624 0Z" />
<glyph unicode="J" glyph-name="J" horiz-adv-x="797" d="M785 1319H736Q656 1304 615 1270Q591 1239 591 1116V453Q591 168 448 28Q360 -31 244 -31Q167 -31 109 6Q60 60 60 128Q57 147 57 161Q57 211 97 211Q107 211 120 208Q190 227 223 181Q238 160 268 112Q283
95 292 95Q300 95 304 108Q356 108 360 196L399 1116Q403 1209 386 1252Q336 1288 252 1296L204 1319L192 1396H792L785 1319Z" />
<glyph unicode="K" glyph-name="K" horiz-adv-x="1479" d="M1508 -8H863V29Q972 29 972 92Q972 135 900 206L432 669V232Q432 129 445 96Q470 54 528 54Q541 54 556 56L612 48L616 -8H48L56 28L80 52Q172 60 216 78Q240 109 240 232V1108Q228 1208 227 1245Q202
1255 160 1284Q137 1300 94 1311H46L48 1364L620 1360L616 1304L572 1284Q563 1286 554 1286Q513 1286 448 1196Q432 1186 432 1108V693Q471 730 556 848Q868 1094 916 1184Q924 1228 932 1256Q909 1268 868 1304L836 1332L840 1380L1328 1384L1330 1311Q1256 1300
1156 1252Q1116 1212 1040 1128Q943 1048 868 960L684 744L1124 247Q1305 43 1508 29V-8Z" />
<glyph unicode="L" glyph-name="L" horiz-adv-x="1251" d="M1232 280L1087 -8H37V29H88Q174 29 211 85Q232 117 232 233V1108Q232 1235 200 1284Q150 1286 100 1292L32 1300L28 1360H656L648 1264Q580 1283 534 1283Q462 1283 440 1238Q431 1220 424 1085L380
232Q396 164 440 119Q468 96 524 88L716 104Q848 100 914 91Q1095 134 1136 324L1232 280Z" />
<glyph unicode="M" glyph-name="M" horiz-adv-x="1821" d="M1760 -12L1212 0V44L1260 60Q1286 51 1308 51Q1367 51 1385 117Q1394 150 1394 231V1137L892 32L836 16L364 1068L314 231Q332 116 341 75Q378 33 458 33H506V-4H52L60 48L112 44Q121 42 130 42Q171
42 188 88Q208 116 226 231L200 1116Q208 1212 206 1247Q168 1300 40 1304L36 1364L424 1372L864 320L1396 1380L1764 1360L1756 1316L1731 1315Q1644 1292 1608 1263Q1586 1231 1586 1117V231Q1586 106 1614 75Q1652 32 1712 32H1768L1760 -12Z" />
<glyph unicode="N" glyph-name="N" horiz-adv-x="1479" d="M1440 1292H1396Q1318 1292 1268 1263Q1246 1231 1246 1117V-26H1210L316 1066V231Q316 105 343 75Q380 33 436 36L456 40L444 8L36 -4L76 44L83 33Q170 33 206 85Q228 117 228 231V1174Q177 1234 149
1256Q111 1286 49 1306Q21 1315 4 1324L12 1360L332 1372L1158 335V1117Q1140 1228 1130 1273Q1088 1272 1016 1296H960L966 1352H1438L1440 1292Z" />
<glyph unicode="O" glyph-name="O" horiz-adv-x="1479" d="M1400 686Q1400 374 1224 176Q1041 -31 733 -31Q423 -31 243 174Q72 369 72 683Q72 1006 292 1210Q483 1387 749 1387Q1048 1387 1228 1183Q1400 989 1400 686ZM1171 650Q1171 828 1153 914Q1141 971
1098 1065Q998 1283 773 1283Q747 1283 720 1280Q692 1284 666 1284Q530 1284 438 1171Q301 1003 301 679Q301 448 312 447Q317 447 324 492Q531 72 677 72Q691 72 704 76Q726 72 748 72Q985 72 1172 512Q1171 394 1171 650Z" />
<glyph unicode="P" glyph-name="P" horiz-adv-x="1139" d="M1067 981Q1067 798 946 699Q835 607 648 607Q550 607 420 635V240Q420 113 448 81Q487 37 563 37H615V0H34V37H85Q171 37 208 93Q228 124 228 240V1116Q228 1244 201 1275Q162 1319 85 1319H34V1356H531Q691
1356 785 1329Q911 1293 987 1203Q1067 1109 1067 981ZM839 961Q839 1160 701 1238Q636 1275 551 1275Q500 1275 420 1256V692Q526 672 584 672Q699 672 771 761Q839 844 839 961Z" />
<glyph unicode="Q" glyph-name="Q" horiz-adv-x="1479" d="M1401 677Q1401 433 1268 246Q1133 54 902 -15Q1093 -345 1392 -369V-401Q1089 -390 800 -206Q659 -116 557 -15Q410 44 329 108Q72 310 72 681Q72 995 251 1188Q435 1387 746 1387Q1047 1387 1229 1180Q1401
983 1401 677ZM1172 652Q1172 1106 947 1250Q853 1310 734 1310Q499 1310 388 1102Q301 939 301 681Q301 352 443 174Q568 124 734 37Q967 37 1081 238Q1172 398 1172 652Z" />
<glyph unicode="R" glyph-name="R" horiz-adv-x="1366" d="M1384 0H1022L563 634Q512 632 480 632Q453 632 421 634V240Q421 113 449 81Q488 37 563 37H616V0L60 -4L92 36L86 37Q172 37 209 93Q230 125 230 240V1116Q230 1245 202 1275Q181 1297 164 1308L168
1304L136 1364L529 1356Q729 1352 795 1338Q928 1310 1007 1227Q1093 1138 1093 1007Q1093 734 759 660L1039 271Q1124 153 1183 109Q1262 50 1384 37V0ZM852 982Q852 1116 775 1192T562 1268Q504 1268 405 1249L444 720L433 685Q452 684 461 684Q624 684 728 750Q852
828 852 982Z" />
<glyph unicode="S" glyph-name="S" horiz-adv-x="1139" d="M1025 354Q1025 176 898 73Q780 -23 598 -23Q524 -23 487 -14L348 20Q299 32 235 54Q185 54 180 4L136 12L140 408L168 420Q197 311 233 244Q281 154 379 103Q470 55 577 55Q687 55 762 110Q847 171 847
277Q847 387 734 473Q664 526 503 614Q347 699 274 756Q124 874 124 1038Q124 1200 244 1300Q356 1395 521 1395Q630 1395 750 1342Q807 1317 828 1336Q843 1331 855 1331Q883 1331 888 1364L948 1360L944 960L892 992Q864 1179 688 1236Q644 1284 590 1284Q555
1284 516 1264Q481 1285 449 1285Q402 1285 360 1240Q283 1198 283 1107Q283 1046 326 994Q388 920 621 794Q788 704 827 677Q1025 541 1025 354Z" />
<glyph unicode="T" glyph-name="T" horiz-adv-x="1251" d="M1200 1144H1132Q1136 1139 1137 1138L1138 1139Q1137 1145 1132 1158Q1060 1224 914 1271L724 1244L723 235Q712 192 712 160Q712 101 750 79Q788 52 867 37L880 36L888 4L356 -4L360 40L387 37Q473
37 509 89Q540 107 540 163Q540 194 531 235L516 1248L372 1252H228Q126 1218 126 1172Q126 1166 128 1160L60 1168L78 1356H1185L1200 1144Z" />
<glyph unicode="U" glyph-name="U" horiz-adv-x="1479" d="M1457 1319H1406Q1327 1319 1296 1260Q1284 1230 1284 1116V556Q1262 368 1232 272Q1137 -32 740 -32Q344 -32 240 252Q208 497 208 586V1116Q208 1221 186 1261Q154 1319 62 1319L12 1328L28 1408H604L597
1319H545Q460 1308 425 1266Q364 1240 352 1128L348 528Q372 288 467 185Q540 79 702 79Q719 79 736 80Q868 72 964 132Q1080 176 1108 288Q1148 360 1172 576V1116Q1172 1243 1120 1272Q1108 1299 1058 1299Q1041 1299 1020 1296H972L988 1396L1456 1380L1457
1319Z" />
<glyph unicode="V" glyph-name="V" horiz-adv-x="1479" d="M1454 1319Q1381 1306 1345 1273Q1293 1226 1251 1123L778 -31H741L233 1138Q193 1229 178 1248Q128 1310 18 1319V1356H572V1319Q422 1305 422 1228Q422 1178 468 1072L813 277L1133 1062Q1180 1177
1180 1223Q1180 1294 1053 1316L1036 1319V1356H1454V1319Z" />
<glyph unicode="W" glyph-name="W" horiz-adv-x="1933" d="M1888 1312Q1828 1280 1804 1220Q1785 1200 1740 1060L1384 -36L1299 -35L1032 836L683 -35H647L244 1091Q202 1209 187 1240Q155 1308 112 1308L120 1360L508 1352L541 1315L504 1288Q470 1295 461 1295Q408
1294 408 1233Q408 1211 452 1072L688 324L872 960V1163Q831 1281 743 1309Q740 1312 756 1328L760 1376H1160V1320L1156 1276Q1128 1284 1105 1284Q1046 1284 1020 1232Q1024 1180 1112 1048L1336 300L1596 1068Q1609 1107 1640 1228Q1640 1277 1620 1284Q1585
1296 1564 1288L1556 1368H1900L1888 1312Z" />
<glyph unicode="X" glyph-name="X" horiz-adv-x="1479" d="M1455 0H873V37Q918 38 939 43Q1007 59 1007 114Q1007 137 998 160Q993 172 943 248L713 596L429 232Q366 151 366 114Q366 42 496 37V0H15V37Q65 42 103 58Q229 111 349 263L669 667L402 1058Q313 1188
254 1238Q163 1315 42 1319V1356H669V1319Q530 1314 530 1242Q530 1206 578 1134L786 823L1027 1128Q1088 1205 1088 1243Q1088 1292 1038 1310Q1016 1318 943 1319V1356H1424V1319Q1366 1316 1331 1301Q1234 1260 1105 1095L836 751L1127 317Q1225 170 1260 134Q1347
43 1455 37V0Z" />
<glyph unicode="Y" glyph-name="Y" horiz-adv-x="1479" d="M1372 1320Q1325 1319 1240 1230Q1192 1180 1139 1090L836 576L812 235Q836 116 840 79Q878 37 960 37H1004V0H428V37H476Q562 37 598 89Q588 116 572 228L604 544L248 1124Q198 1205 171 1235Q139 1270
61 1309Q57 1311 48 1316V1356H472L480 1332L484 1328Q505 1319 470 1299Q427 1275 427 1231Q427 1211 488 1101L712 696L968 1088Q1068 1180 1072 1216Q1068 1272 1028 1292Q1014 1319 1008 1320L1004 1356H1364L1372 1320Z" />
<glyph unicode="Z" glyph-name="Z" horiz-adv-x="1251" d="M1180 324V4L10 -8V29L860 1256H448Q264 1256 240 1184Q236 1116 212 1080L144 1088V1368H1100L268 132H840Q885 121 918 121Q982 121 1008 160Q1068 204 1084 324H1180Z" />
<glyph unicode="[" glyph-name="bracketleft" horiz-adv-x="784" d="M743 -334H205V1393H743V1126H502V-68H743V-334Z" />
<glyph unicode="\" glyph-name="backslash" horiz-adv-x="565" d="M556 -4H380L0 1194L184 1196L556 -4Z" />
<glyph unicode="]" glyph-name="bracketright" horiz-adv-x="784" d="M580 -334H41V-68H283V1126H41V1393H580V-334Z" />
<glyph unicode="^" glyph-name="asciicircum" horiz-adv-x="788" d="M768 436H608L400 944L168 436H27L344 1137H451L768 436Z" />
<glyph unicode="_" glyph-name="underscore" horiz-adv-x="1032" d="M1042 -258H0L-8 -128H1036L1042 -258Z" />
<glyph unicode="`" glyph-name="grave" horiz-adv-x="682" d="M447 1045L392 1036L118 1390H341L447 1045Z" />
<glyph unicode="a" glyph-name="a" horiz-adv-x="909" d="M905 132Q793 -18 691 -18Q585 -18 583 132Q441 22 406 6Q352 -19 291 -19Q191 -19 131 50Q73 116 73 217Q73 359 246 461Q348 521 583 607V643Q583 882 413 882Q360 882 319 853Q273 821 275 770L277
712Q280 616 192 616Q108 616 108 713Q108 826 225 890Q321 943 443 943Q672 943 730 805Q748 762 748 629V318Q748 137 770 118Q781 108 796 108Q812 108 824 115Q844 127 905 188V132ZM583 197V546Q437 488 388 461Q241 379 241 264Q241 199 279 150Q320 97 383
97Q459 97 583 197Z" />
<glyph unicode="b" glyph-name="b" horiz-adv-x="1024" d="M954 493Q954 249 792 100Q653 -28 482 -28Q323 -28 151 88V1037Q151 1253 120 1278Q104 1291 80 1291Q52 1291 10 1275L-4 1310L271 1422H316V758Q449 943 603 943Q771 943 869 796Q954 669 954 493ZM781
436Q781 573 723 676Q652 801 524 801Q471 801 418 774Q378 754 316 694V146Q419 45 533 45Q658 45 727 186Q781 297 781 436Z" />
<glyph unicode="c" glyph-name="c" horiz-adv-x="909" d="M842 348Q810 190 716 88Q610 -28 458 -28Q275 -28 166 128Q70 266 70 457Q70 667 182 800Q301 943 507 943Q613 943 707 887Q816 822 816 723Q816 638 723 638Q663 638 634 676Q627 685 611 758Q585 876
474 876Q374 876 313 802Q232 704 232 543Q232 388 302 269Q385 128 530 128Q627 128 706 195Q761 242 813 362L842 348Z" />
<glyph unicode="d" glyph-name="d" horiz-adv-x="1024" d="M1029 85L757 -28H711V103Q586 -28 442 -28Q272 -28 165 115Q68 245 68 420Q68 621 187 776Q316 944 511 944Q632 944 711 867V1036Q711 1253 680 1278Q664 1291 640 1291Q614 1291 571 1275L558 1310L831
1422H876V363Q876 144 908 117Q924 103 946 103Q973 103 1018 120L1029 85ZM711 173V645Q711 788 596 854Q547 882 499 882Q411 882 342 803Q251 699 251 499Q251 346 315 227Q393 82 535 82Q626 82 711 173Z" />
<glyph unicode="e" glyph-name="e" horiz-adv-x="909" d="M851 334Q828 183 729 82Q623 -28 476 -28Q287 -28 176 119Q76 252 76 446Q76 662 177 795Q289 944 499 944Q661 944 757 837Q851 734 851 571H218Q217 401 297 278Q390 135 552 135Q738 135 820 354L851
334ZM642 629Q637 717 621 753Q568 873 443 873Q346 873 284 797Q228 730 218 629H642Z" />
<glyph unicode="f" glyph-name="f" horiz-adv-x="682" d="M890 1251Q890 1221 864 1195T808 1168Q802 1168 700 1258T560 1348Q463 1348 436 1248Q422 1196 422 982V916H658V844H422V242Q422 114 450 80Q487 36 549 36H632V0H85V36H126Q218 36 245 110Q257 143
257 242V844H79V916H257V976Q257 1246 436 1362Q526 1420 639 1420Q744 1420 832 1352Q890 1307 890 1251Z" />
<glyph unicode="g" glyph-name="g" horiz-adv-x="1024" d="M987 836Q987 798 972 792Q964 789 921 789H802Q858 717 858 605Q858 460 747 374Q646 295 497 295Q429 295 358 315Q283 250 283 200Q283 156 364 144Q393 140 504 137Q711 132 771 123Q861 110 915
59Q975 3 975 -84Q975 -197 869 -296Q713 -442 462 -442Q268 -442 136 -355Q61 -306 61 -251Q61 -201 142 -100Q150 -90 244 8Q149 65 149 119Q149 200 309 334Q135 419 135 611Q135 764 243 856Q344 943 500 943Q631 943 727 879H921Q964 879 971 876Q987 869
987 836ZM683 580Q683 739 614 829Q563 895 483 895Q391 895 346 817Q309 754 309 655Q309 497 377 410Q429 344 509 344Q683 344 683 580ZM902 -123Q902 -54 799 -33Q767 -26 645 -23Q443 -17 299 0Q204 -103 204 -176Q204 -224 262 -260Q362 -322 551 -322Q674
-322 770 -283Q902 -229 902 -123Z" />
<glyph unicode="h" glyph-name="h" horiz-adv-x="1024" d="M1011 0H561V36H582Q687 36 706 113Q709 125 709 207V531Q709 644 705 674Q685 822 562 822Q456 822 333 691V207Q333 137 336 119Q350 36 481 36V0H27V36Q87 36 123 55Q167 78 167 207V1036Q167 1253
137 1278Q122 1291 95 1291Q74 1291 27 1275L13 1310L287 1422H333V752Q416 843 468 881Q553 943 639 943Q804 943 856 765Q875 700 875 531V207Q875 121 889 88Q911 36 1011 36V0Z" />
<glyph unicode="i" glyph-name="i" horiz-adv-x="569" d="M398 1321Q398 1279 369 1249T297 1219Q255 1219 225 1249T195 1321Q195 1364 224 1393T297 1422Q339 1422 368 1393T398 1321ZM519 0H74V36Q176 36 201 92Q214 121 214 207V560Q214 710 205 753Q193 810
142 810Q114 810 74 795L60 831L336 943H380V207Q380 78 430 50Q455 36 519 36V0Z" />
<glyph unicode="j" glyph-name="j" horiz-adv-x="569" d="M400 1320Q400 1277 370 1248T297 1218Q255 1218 225 1248T195 1320Q195 1363 224 1393T297 1423Q340 1423 370 1393T400 1320ZM383 21Q383 -179 305 -299Q213 -442 23 -442Q-37 -442 -88 -421Q-156 -393
-156 -341Q-156 -307 -132 -282T-74 -256Q-50 -256 -21 -269Q-6 -276 50 -324Q95 -363 126 -363Q187 -363 207 -283Q218 -239 218 -94V558Q218 709 209 752Q197 810 146 810Q118 810 78 795L64 831L340 943H383V21Z" />
<glyph unicode="k" glyph-name="k" horiz-adv-x="1024" d="M1036 0H591V36Q656 38 656 77Q656 100 616 151L335 510V206Q335 74 383 49Q406 37 483 36V0H17V36Q130 36 154 87Q169 119 169 201V1035Q169 1254 139 1279Q124 1292 97 1292Q76 1292 34 1275L17 1310L289
1422H335V510L568 723Q641 790 654 809Q662 821 662 833Q662 880 591 884V916H989V884Q845 880 733 777L498 560L733 263Q827 144 865 107Q913 60 949 46Q974 36 1036 36V0Z" />
<glyph unicode="l" glyph-name="l" horiz-adv-x="569" d="M527 0H78V36Q176 36 200 92Q213 122 213 207V1039Q213 1254 184 1278Q169 1291 144 1291Q118 1291 78 1275L61 1310L334 1422H379V207Q379 79 430 51Q457 36 527 36V0Z" />
<glyph unicode="m" glyph-name="m" horiz-adv-x="1593" d="M1584 0H1132V36H1151Q1256 36 1276 110Q1280 125 1280 207V601Q1280 714 1253 759Q1215 823 1128 823Q1024 823 892 698L890 687L892 644V207Q892 137 895 119Q909 36 1041 36V0H578V36Q700 36 722 108Q727
124 727 207V601Q727 714 694 762Q650 826 571 826Q518 826 464 797Q380 752 336 698V207Q336 78 386 50Q411 36 485 36V0H32V36Q133 36 158 93Q171 122 171 207V557Q171 709 162 752Q150 810 99 810Q71 810 32 795L17 831L293 943H336V748Q435 847 454 863Q549
943 654 943Q842 943 885 748Q966 842 1024 883Q1109 943 1205 943Q1362 943 1424 783Q1446 726 1446 601V207Q1446 119 1459 89Q1482 36 1584 36V0Z" />
<glyph unicode="n" glyph-name="n" horiz-adv-x="1024" d="M1015 0H562V36H581Q686 36 706 113Q710 128 710 207V582Q710 820 568 820Q449 820 331 690V207Q331 115 342 92Q369 36 480 36V0H27V36H47Q124 36 149 85Q166 119 166 207V547Q166 772 136 797Q121 810
94 810Q66 810 27 795L12 831L288 943H331V749Q492 943 638 943Q793 943 853 782Q875 723 875 598V207Q875 78 925 50Q950 36 1015 36V0Z" />
<glyph unicode="o" glyph-name="o" horiz-adv-x="1024" d="M953 475Q953 343 898 228Q839 104 734 38T501 -28Q294 -28 172 137Q69 276 69 449Q69 579 126 695Q186 819 292 881T512 943Q720 943 846 785Q953 650 953 475ZM767 398Q767 641 662 782Q590 878 481
878Q347 878 288 736Q255 657 255 533Q255 363 316 224Q395 43 544 43Q767 43 767 398Z" />
<glyph unicode="p" glyph-name="p" horiz-adv-x="1024" d="M955 491Q955 254 819 99Q707 -28 537 -28Q463 -28 409 -7Q368 9 319 53V-226Q319 -300 322 -316Q331 -365 371 -386Q400 -401 474 -401V-438H-6V-401H19Q108 -401 134 -355Q153 -322 153 -220V646Q153
772 120 795Q103 807 72 807Q48 807 11 793L-1 825L281 939H319V725Q447 943 612 943Q750 943 842 835Q955 703 955 491ZM777 397Q777 607 685 720Q621 798 533 798Q485 798 438 774Q402 756 319 666V324Q319 214 328 178Q345 110 405 70Q461 32 534 32Q634 32
696 110Q777 212 777 397Z" />
<glyph unicode="q" glyph-name="q" horiz-adv-x="1024" d="M1024 -438H562V-401H581Q675 -401 698 -346Q710 -317 710 -235V159Q552 -28 410 -28Q249 -28 152 120Q68 249 68 417Q68 642 189 788Q318 943 539 943Q654 943 730 879Q788 907 841 943H875V-235Q875
-299 879 -320Q888 -367 925 -387Q951 -401 1024 -401V-438ZM710 222V652Q710 790 621 843Q571 873 508 873Q366 873 294 746Q236 644 236 490Q236 340 298 237Q373 113 514 113Q625 113 710 222Z" />
<glyph unicode="r" glyph-name="r" horiz-adv-x="682" d="M695 832Q695 794 670 767T607 739Q587 739 526 773T464 808Q447 808 425 788Q379 746 332 653V214Q332 120 364 80Q400 36 492 36V0H23V36Q141 36 162 109Q167 126 167 206V561Q167 698 168 682Q163 775
137 796Q120 810 93 810Q62 810 23 795L13 831L290 943H332V737Q447 943 568 943Q618 943 656 912T695 832Z" />
<glyph unicode="s" glyph-name="s" horiz-adv-x="797" d="M725 250Q725 120 635 44Q551 -28 419 -28Q333 -28 227 2Q192 12 173 12Q150 12 137 -14H104V313H137Q161 192 229 117Q306 31 421 31Q485 31 529 68Q577 107 577 169Q577 252 492 316Q451 347 328 407Q220
460 171 507Q100 576 100 678Q100 796 181 870Q259 943 378 943Q432 943 509 920Q560 905 577 905Q604 905 623 943H656V631H623Q591 753 545 809Q484 884 374 884Q316 884 270 854Q218 820 218 765Q218 659 376 582L522 511Q725 412 725 250Z" />
<glyph unicode="t" glyph-name="t" horiz-adv-x="569" d="M572 182Q502 -15 341 -15Q230 -15 186 84Q165 131 165 230V846H20V879Q143 928 235 1078Q255 1110 299 1217H330V916H544V846H330V252Q330 101 421 101Q499 101 533 182H572Z" />
<glyph unicode="u" glyph-name="u" horiz-adv-x="1024" d="M1021 85L747 -28H702V166Q613 69 565 34Q480 -28 391 -28Q229 -28 179 131Q157 201 157 329V738Q157 840 102 867Q76 880 2 879V916H323V303Q323 95 475 95Q574 95 702 225V744Q702 825 668 853Q638
877 555 879V916H867V361Q867 144 899 117Q915 103 937 103Q968 103 1007 120L1021 85Z" />
<glyph unicode="v" glyph-name="v" horiz-adv-x="1024" d="M1005 879Q953 875 933 858Q900 830 870 758L545 -28H504L177 745Q140 833 84 862Q67 871 17 879V916H448V879H420Q340 879 340 809Q340 776 361 726L574 220L788 745Q811 801 811 830Q811 844 803 853Q784
879 706 879V916H1005V879Z" />
<glyph unicode="w" glyph-name="w" horiz-adv-x="1479" d="M1460 879Q1373 866 1332 761L1026 -28H985L756 557L489 -28H452L158 742Q133 807 107 834Q76 865 13 879V916H397V879Q311 873 311 817Q311 788 328 742L524 215L721 644L669 779Q647 837 606 862Q583
876 524 879V916H960V879Q838 874 838 802Q838 781 846 761L1054 235L1247 742Q1267 795 1267 828Q1267 876 1171 879V916H1460V879Z" />
<glyph unicode="x" glyph-name="x" horiz-adv-x="1024" d="M999 0H567V36Q656 36 656 93Q656 115 592 209L458 405L311 209Q243 118 243 101Q243 40 333 36V0H34V36Q71 41 97 61Q136 91 225 209L417 464L243 716Q183 803 155 829Q101 879 27 879V916H458V879Q384
879 384 828Q384 804 419 754Q436 730 452 704L517 600L592 704Q664 804 664 829Q664 879 592 879V916H902V879Q853 876 817 852Q770 820 683 704L558 537L786 209Q852 114 873 93Q926 40 999 36V0Z" />
<glyph unicode="y" glyph-name="y" horiz-adv-x="1024" d="M1012 879Q949 872 911 818Q905 809 877 741L504 -173Q460 -281 385 -354Q296 -442 194 -442Q141 -442 102 -413Q59 -381 59 -330Q59 -237 162 -237Q194 -237 252 -259Q291 -274 302 -274Q377 -274 439
-123L504 36L175 727Q161 757 127 804Q101 840 86 851Q64 867 12 879V916H439V879H418Q328 879 328 811Q328 771 361 703L584 241L789 747Q806 789 806 828Q806 861 774 873Q758 879 714 879V916H1012V879Z" />
<glyph unicode="z" glyph-name="z" horiz-adv-x="909" d="M876 879L262 67H596Q679 67 712 76Q771 92 799 146Q815 177 826 281H860L849 0H41V36L649 846H349Q272 846 249 841Q151 820 142 662H102L108 916H876V879Z" />
<glyph unicode="{" glyph-name="braceleft" horiz-adv-x="721" d="M680 -334H428Q263 -334 167 -223Q83 -125 83 10Q83 76 106 131L169 285Q188 330 188 369Q188 463 61 528Q188 594 188 688Q188 726 169 772L106 926Q83 981 83 1047Q83 1182 167 1279Q263 1391
428 1391H680V1124H542Q422 1124 422 1013Q422 977 439 934L495 791Q508 755 508 718Q508 652 470 598T380 528Q430 513 468 455T506 330Q506 296 495 266L443 133Q427 92 427 55Q427 0 459 -34T542 -68H680V-334Z" />
<glyph unicode="|" glyph-name="bar" horiz-adv-x="476" d="M313 -294H164V1389H313V-294Z" />
<glyph unicode="}" glyph-name="braceright" horiz-adv-x="721" d="M660 528Q533 463 533 369Q533 330 552 285L616 131Q638 76 638 10Q638 -125 554 -223Q458 -334 293 -334H41V-68H179Q229 -68 262 -34T295 55Q295 92 279 133L227 266Q215 296 215 330Q215 396
253 454T341 528Q290 544 252 598T213 718Q213 755 227 791L283 934Q299 977 299 1013Q299 1124 179 1124H41V1391H293Q458 1391 554 1279Q638 1182 638 1047Q638 981 616 926L552 772Q533 726 533 688Q533 594 660 528Z" />
<glyph unicode="~" glyph-name="asciitilde" horiz-adv-x="1112" d="M1081 645Q946 408 770 408Q702 408 636 437L532 483Q411 553 330 553Q260 553 203 502Q164 467 96 371L20 471Q143 688 325 688Q399 688 565 612Q736 554 774 554Q890 554 983 709L1081 645Z" />
</font>
</defs>
</svg>
